<?xml version="1.0" encoding="UTF-8" standalone="no"?>
<!DOCTYPE svg PUBLIC "-//W3C//DTD SVG 1.1//EN"
 "http://www.w3.org/Graphics/SVG/1.1/DTD/svg11.dtd">
<!-- Generated by graphviz version 2.38.0 (20140413.2041)
 -->
<!-- Title: G Pages: 1 -->
<svg width="1215pt" height="369pt"
 viewBox="0.00 0.00 1214.50 369.00" xmlns="http://www.w3.org/2000/svg" xmlns:xlink="http://www.w3.org/1999/xlink">
<g id="graph0" class="graph" transform="scale(1 1) rotate(0) translate(4 365)">
<title>G</title>
<polygon fill="white" stroke="none" points="-4,4 -4,-365 1210.5,-365 1210.5,4 -4,4"/>
<!-- n1 -->
<g id="node1" class="node"><title>n1</title>
<g id="a_node1"><a xlink:href="http://provenance.elaine.uni-rostock.de/swcs" xlink:title="sw:cs">
<ellipse fill="#fffc87" stroke="#808080" cx="123.5" cy="-343" rx="30.5947" ry="18"/>
<text text-anchor="middle" x="123.5" y="-339.3" font-family="Times,serif" font-size="14.00">sw:cs</text>
</a>
</g>
</g>
<!-- ann1 -->
<g id="node2" class="node"><title>ann1</title>
<polygon fill="none" stroke="gray" points="183,-288 0,-288 0,-252 189,-252 189,-282 183,-288"/>
<polyline fill="none" stroke="gray" points="183,-288 183,-282 "/>
<polyline fill="none" stroke="gray" points="189,-282 183,-282 "/>
<g id="a_node2_0"><a xlink:href="http://www.w3.org/ns/prov#label" xlink:title="&lt;TABLE&gt;">
<text text-anchor="start" x="10.5" y="-267" font-family="Times,serif" font-size="10.00">prov:label</text>
</a>
</g>
<text text-anchor="start" x="55.5" y="-267" font-family="Times,serif" font-size="10.00">COMSOL Multiphysics v5.2a</text>
</g>
<!-- ann1&#45;&gt;n1 -->
<g id="edge1" class="edge"><title>ann1&#45;&gt;n1</title>
<path fill="none" stroke="gray" stroke-dasharray="5,2" d="M101.52,-288.187C106.08,-299.35 111.998,-313.84 116.545,-324.971"/>
</g>
<!-- n2 -->
<g id="node3" class="node"><title>n2</title>
<g id="a_node3"><a xlink:href="http://provenance.elaine.uni-rostock.de/moel:left:a3d" xlink:title="mo:el:left:a3d">
<ellipse fill="#fffc87" stroke="#808080" cx="1022.5" cy="-343" rx="60.3893" ry="18"/>
<text text-anchor="middle" x="1022.5" y="-339.3" font-family="Times,serif" font-size="14.00">mo:el:left:a3d</text>
</a>
</g>
</g>
<!-- ann2 -->
<g id="node4" class="node"><title>ann2</title>
<polygon fill="none" stroke="gray" points="1200.5,-288 920.5,-288 920.5,-252 1206.5,-252 1206.5,-282 1200.5,-288"/>
<polyline fill="none" stroke="gray" points="1200.5,-288 1200.5,-282 "/>
<polyline fill="none" stroke="gray" points="1206.5,-282 1200.5,-282 "/>
<g id="a_node4_1"><a xlink:href="http://www.w3.org/ns/prov#label" xlink:title="&lt;TABLE&gt;">
<text text-anchor="start" x="930.5" y="-274" font-family="Times,serif" font-size="10.00">prov:label</text>
</a>
</g>
<text text-anchor="start" x="980.5" y="-274" font-family="Times,serif" font-size="10.00">3D CAD model of Screw with NURBS surfaces (left)</text>
<g id="a_node4_2"><a xlink:href="http://provenance.elaine.uni-rostock.de/dafileType" xlink:title="&lt;TABLE&gt;">
<text text-anchor="start" x="930.5" y="-261" font-family="Times,serif" font-size="10.00">da:fileType</text>
</a>
</g>
<text text-anchor="start" x="980.5" y="-261" font-family="Times,serif" font-size="10.00">IGES</text>
</g>
<!-- ann2&#45;&gt;n2 -->
<g id="edge2" class="edge"><title>ann2&#45;&gt;n2</title>
<path fill="none" stroke="gray" stroke-dasharray="5,2" d="M1053.58,-288.187C1047.13,-299.35 1038.76,-313.84 1032.33,-324.971"/>
</g>
<!-- n3 -->
<g id="node5" class="node"><title>n3</title>
<g id="a_node5"><a xlink:href="http://provenance.elaine.uni-rostock.de/moa3d" xlink:title="mo:a3d">
<ellipse fill="#fffc87" stroke="#808080" cx="614.5" cy="-343" rx="37.8943" ry="18"/>
<text text-anchor="middle" x="614.5" y="-339.3" font-family="Times,serif" font-size="14.00">mo:a3d</text>
</a>
</g>
</g>
<!-- ann3 -->
<g id="node6" class="node"><title>ann3</title>
<polygon fill="none" stroke="gray" points="875,-288 538,-288 538,-252 881,-252 881,-282 875,-288"/>
<polyline fill="none" stroke="gray" points="875,-288 875,-282 "/>
<polyline fill="none" stroke="gray" points="881,-282 875,-282 "/>
<g id="a_node6_3"><a xlink:href="http://www.w3.org/ns/prov#label" xlink:title="&lt;TABLE&gt;">
<text text-anchor="start" x="548.5" y="-274" font-family="Times,serif" font-size="10.00">prov:label</text>
</a>
</g>
<text text-anchor="start" x="598.5" y="-274" font-family="Times,serif" font-size="10.00">Anatomical 3D CAD model of the mandible with NURBS surfaces</text>
<g id="a_node6_4"><a xlink:href="http://provenance.elaine.uni-rostock.de/dafileType" xlink:title="&lt;TABLE&gt;">
<text text-anchor="start" x="548.5" y="-261" font-family="Times,serif" font-size="10.00">da:fileType</text>
</a>
</g>
<text text-anchor="start" x="598.5" y="-261" font-family="Times,serif" font-size="10.00">IGES</text>
</g>
<!-- ann3&#45;&gt;n3 -->
<g id="edge3" class="edge"><title>ann3&#45;&gt;n3</title>
<path fill="none" stroke="gray" stroke-dasharray="5,2" d="M686.503,-288.187C670.469,-300.171 649.304,-315.989 634.076,-327.369"/>
</g>
<!-- n4 -->
<g id="node7" class="node"><title>n4</title>
<g id="a_node7"><a xlink:href="http://provenance.elaine.uni-rostock.de/mogeom" xlink:title="mo:geom">
<ellipse fill="#fffc87" stroke="#808080" cx="358.5" cy="-104" rx="44.6926" ry="18"/>
<text text-anchor="middle" x="358.5" y="-100.3" font-family="Times,serif" font-size="14.00">mo:geom</text>
</a>
</g>
</g>
<!-- n5 -->
<g id="node9" class="node"><title>n5</title>
<g id="a_node9"><a xlink:href="http://provenance.elaine.uni-rostock.de/macomposition:a1" xlink:title="ma:composition:a1">
<polygon fill="#9fb1fc" stroke="#0000ff" points="513.5,-205 391.5,-205 391.5,-169 513.5,-169 513.5,-205"/>
<text text-anchor="middle" x="452.5" y="-183.3" font-family="Times,serif" font-size="14.00">ma:composition:a1</text>
</a>
</g>
</g>
<!-- n4&#45;&gt;n5 -->
<g id="edge7" class="edge"><title>n4&#45;&gt;n5</title>
<path fill="none" stroke="darkgreen" d="M370.02,-121.447C377.027,-130.762 386.527,-142.262 396.5,-151 401.423,-155.314 406.936,-159.444 412.53,-163.258"/>
<polygon fill="darkgreen" stroke="darkgreen" points="411.025,-166.454 421.316,-168.973 414.842,-160.586 411.025,-166.454"/>
<text text-anchor="middle" x="431.5" y="-143" font-family="Times,serif" font-size="10.00" fill="darkgreen">wasGeneratedBy</text>
</g>
<!-- ann4 -->
<g id="node8" class="node"><title>ann4</title>
<polygon fill="none" stroke="gray" points="493,-49 218,-49 218,-3.55271e-15 499,-3.55271e-15 499,-43 493,-49"/>
<polyline fill="none" stroke="gray" points="493,-49 493,-43 "/>
<polyline fill="none" stroke="gray" points="499,-43 493,-43 "/>
<g id="a_node8_5"><a xlink:href="http://www.w3.org/ns/prov#label" xlink:title="&lt;TABLE&gt;">
<text text-anchor="start" x="228.5" y="-34.5" font-family="Times,serif" font-size="10.00">prov:label</text>
</a>
</g>
<text text-anchor="start" x="286.5" y="-34.5" font-family="Times,serif" font-size="10.00">Geometrical 3D Model of composed Components</text>
<g id="a_node8_6"><a xlink:href="http://provenance.elaine.uni-rostock.de/dafileType" xlink:title="&lt;TABLE&gt;">
<text text-anchor="start" x="228.5" y="-21.5" font-family="Times,serif" font-size="10.00">da:fileType</text>
</a>
</g>
<text text-anchor="start" x="286.5" y="-21.5" font-family="Times,serif" font-size="10.00">mph</text>
<g id="a_node8_7"><a xlink:href="http://www.w3.org/2000/01/rdf-schema#comment" xlink:title="&lt;TABLE&gt;">
<text text-anchor="start" x="228.5" y="-8.5" font-family="Times,serif" font-size="10.00">rdfs:comment</text>
</a>
</g>
<text text-anchor="start" x="286.5" y="-8.5" font-family="Times,serif" font-size="10.00">This is part of the COMSOL project file</text>
</g>
<!-- ann4&#45;&gt;n4 -->
<g id="edge4" class="edge"><title>ann4&#45;&gt;n4</title>
<path fill="none" stroke="gray" stroke-dasharray="5,2" d="M358.5,-49.1737C358.5,-60.9254 358.5,-74.869 358.5,-85.6196"/>
</g>
<!-- b1 -->
<g id="node13" class="node"><title>b1</title>
<ellipse fill="gray" stroke="gray" cx="320.5" cy="-270" rx="1.8" ry="1.8"/>
</g>
<!-- n5&#45;&gt;b1 -->
<g id="edge8" class="edge"><title>n5&#45;&gt;b1</title>
<path fill="none" stroke="#fed37f" d="M407.665,-205.105C383.239,-215.957 353.582,-231.776 331.5,-252 326.108,-256.938 322.216,-265.075 320.946,-267.952"/>
<text text-anchor="middle" x="411.5" y="-226" font-family="Times,serif" font-size="10.00">wasAssociatedWith</text>
</g>
<!-- b2 -->
<g id="node15" class="node"><title>b2</title>
<ellipse fill="gray" stroke="gray" cx="518.5" cy="-270" rx="1.8" ry="1.8"/>
</g>
<!-- n5&#45;&gt;b2 -->
<g id="edge11" class="edge"><title>n5&#45;&gt;b2</title>
<path fill="none" stroke="#8b0000" d="M469.122,-205.19C480.788,-217.671 496.402,-235.241 508.5,-252 512.669,-257.775 516.665,-265.388 518.017,-268.04"/>
<text text-anchor="middle" x="503" y="-226" font-family="Times,serif" font-size="10.00" fill="red">used</text>
</g>
<!-- b3 -->
<g id="node17" class="node"><title>b3</title>
<ellipse fill="gray" stroke="gray" cx="900.5" cy="-270" rx="1.8" ry="1.8"/>
</g>
<!-- n5&#45;&gt;b3 -->
<g id="edge14" class="edge"><title>n5&#45;&gt;b3</title>
<path fill="none" stroke="#8b0000" d="M513.602,-203.072C516.943,-203.758 520.258,-204.406 523.5,-205 604.376,-219.817 821.87,-206.719 890.5,-252 896.674,-256.073 899.548,-265.375 900.296,-268.183"/>
<text text-anchor="middle" x="850" y="-226" font-family="Times,serif" font-size="10.00" fill="red">used</text>
</g>
<!-- b4 -->
<g id="node19" class="node"><title>b4</title>
<ellipse fill="gray" stroke="gray" cx="208.5" cy="-270" rx="1.8" ry="1.8"/>
</g>
<!-- n5&#45;&gt;b4 -->
<g id="edge17" class="edge"><title>n5&#45;&gt;b4</title>
<path fill="none" stroke="#8b0000" d="M391.285,-204.725C372.055,-210.241 350.807,-216.608 331.5,-223 280.422,-239.911 218.987,-264.736 209.7,-268.511"/>
<text text-anchor="middle" x="341" y="-226" font-family="Times,serif" font-size="10.00" fill="red">used</text>
</g>
<!-- ann5 -->
<g id="node10" class="node"><title>ann5</title>
<polygon fill="none" stroke="gray" points="564,-122 421,-122 421,-86 570,-86 570,-116 564,-122"/>
<polyline fill="none" stroke="gray" points="564,-122 564,-116 "/>
<polyline fill="none" stroke="gray" points="570,-116 564,-116 "/>
<g id="a_node10_8"><a xlink:href="http://www.w3.org/ns/prov#label" xlink:title="&lt;TABLE&gt;">
<text text-anchor="start" x="431.5" y="-101" font-family="Times,serif" font-size="10.00">prov:label</text>
</a>
</g>
<text text-anchor="start" x="476.5" y="-101" font-family="Times,serif" font-size="10.00">Modeling Geometry</text>
</g>
<!-- ann5&#45;&gt;n5 -->
<g id="edge5" class="edge"><title>ann5&#45;&gt;n5</title>
<path fill="none" stroke="gray" stroke-dasharray="5,2" d="M486.381,-122.178C479.084,-135.924 468.9,-155.107 461.606,-168.847"/>
</g>
<!-- n6 -->
<g id="node11" class="node"><title>n6</title>
<g id="a_node11"><a xlink:href="http://provenance.elaine.uni-rostock.de/aghr" xlink:title="ag:hr">
<polygon fill="#fed37f" stroke="black" points="423.697,-348.562 388.5,-361 353.303,-348.562 353.335,-328.438 423.665,-328.438 423.697,-348.562"/>
<text text-anchor="middle" x="388.5" y="-339.3" font-family="Times,serif" font-size="14.00">ag:hr</text>
</a>
</g>
</g>
<!-- ann6 -->
<g id="node12" class="node"><title>ann6</title>
<polygon fill="none" stroke="gray" points="493,-288 340,-288 340,-252 499,-252 499,-282 493,-288"/>
<polyline fill="none" stroke="gray" points="493,-288 493,-282 "/>
<polyline fill="none" stroke="gray" points="499,-282 493,-282 "/>
<g id="a_node12_9"><a xlink:href="http://www.w3.org/ns/prov#type" xlink:title="&lt;TABLE&gt;">
<text text-anchor="start" x="350.5" y="-274" font-family="Times,serif" font-size="10.00">prov:type</text>
</a>
</g>
<g id="a_node12_10"><a xlink:href="http://www.w3.org/ns/prov#Person" xlink:title="&lt;TABLE&gt;">
<text text-anchor="start" x="419.5" y="-274" font-family="Times,serif" font-size="10.00">prov:Person</text>
</a>
</g>
<g id="a_node12_11"><a xlink:href="http://xmlns.com/foaf/spec/#givenName" xlink:title="&lt;TABLE&gt;">
<text text-anchor="start" x="350.5" y="-261" font-family="Times,serif" font-size="10.00">foaf:givenName</text>
</a>
</g>
<text text-anchor="start" x="419.5" y="-261" font-family="Times,serif" font-size="10.00">Hendrikje Raben</text>
</g>
<!-- ann6&#45;&gt;n6 -->
<g id="edge6" class="edge"><title>ann6&#45;&gt;n6</title>
<path fill="none" stroke="gray" stroke-dasharray="5,2" d="M411.996,-288.187C406.62,-300.499 399.477,-316.858 394.484,-328.295"/>
</g>
<!-- b1&#45;&gt;n6 -->
<g id="edge9" class="edge"><title>b1&#45;&gt;n6</title>
<path fill="none" stroke="#fed37f" d="M321.022,-271.976C322.486,-274.668 326.827,-282.376 331.5,-288 341.358,-299.863 353.638,-311.79 364.273,-321.405"/>
<polygon fill="#fed37f" stroke="#fed37f" points="362.212,-324.255 372.017,-328.269 366.855,-319.017 362.212,-324.255"/>
</g>
<!-- ann7 -->
<g id="node14" class="node"><title>ann7</title>
<polygon fill="none" stroke="gray" points="367.5,-205 267.5,-205 267.5,-169 373.5,-169 373.5,-199 367.5,-205"/>
<polyline fill="none" stroke="gray" points="367.5,-205 367.5,-199 "/>
<polyline fill="none" stroke="gray" points="373.5,-199 367.5,-199 "/>
<g id="a_node14_12"><a xlink:href="http://www.w3.org/ns/prov#role" xlink:title="&lt;TABLE&gt;">
<text text-anchor="start" x="277.5" y="-184" font-family="Times,serif" font-size="10.00">prov:role</text>
</a>
</g>
<g id="a_node14_13"><a xlink:href="http://provenance.elaine.uni-rostock.de/agmodeler" xlink:title="&lt;TABLE&gt;">
<text text-anchor="start" x="317.5" y="-184" font-family="Times,serif" font-size="10.00">ag:modeler</text>
</a>
</g>
</g>
<!-- ann7&#45;&gt;b1 -->
<g id="edge10" class="edge"><title>ann7&#45;&gt;b1</title>
<path fill="none" stroke="gray" stroke-dasharray="5,2" d="M320.5,-205.178C320.5,-226.726 320.5,-261.635 320.5,-267.991"/>
</g>
<!-- b2&#45;&gt;n3 -->
<g id="edge12" class="edge"><title>b2&#45;&gt;n3</title>
<path fill="none" stroke="#8b0000" d="M518.968,-272.026C520.291,-274.847 524.308,-282.851 529.5,-288 544.269,-302.646 563.668,-315.342 580.204,-324.736"/>
<polygon fill="#8b0000" stroke="#8b0000" points="578.601,-327.849 589.049,-329.608 581.978,-321.718 578.601,-327.849"/>
</g>
<!-- ann8 -->
<g id="node16" class="node"><title>ann8</title>
<polygon fill="none" stroke="gray" points="677,-205 532,-205 532,-169 683,-169 683,-199 677,-205"/>
<polyline fill="none" stroke="gray" points="677,-205 677,-199 "/>
<polyline fill="none" stroke="gray" points="683,-199 677,-199 "/>
<g id="a_node16_14"><a xlink:href="http://www.w3.org/ns/prov#role" xlink:title="&lt;TABLE&gt;">
<text text-anchor="start" x="542.5" y="-184" font-family="Times,serif" font-size="10.00">prov:role</text>
</a>
</g>
<g id="a_node16_15"><a xlink:href="http://provenance.elaine.uni-rostock.de/momodelToCompose" xlink:title="&lt;TABLE&gt;">
<text text-anchor="start" x="582.5" y="-184" font-family="Times,serif" font-size="10.00">mo:modelToCompose</text>
</a>
</g>
</g>
<!-- ann8&#45;&gt;b2 -->
<g id="edge13" class="edge"><title>ann8&#45;&gt;b2</title>
<path fill="none" stroke="gray" stroke-dasharray="5,2" d="M582.969,-205.028C566.7,-217.031 545.485,-234.101 529.5,-252 524.629,-257.454 520.412,-265.268 519.001,-268.006"/>
</g>
<!-- b3&#45;&gt;n2 -->
<g id="edge15" class="edge"><title>b3&#45;&gt;n2</title>
<path fill="none" stroke="#8b0000" d="M900.938,-272.058C902.185,-274.96 906.025,-283.153 911.5,-288 929.659,-304.076 953.454,-316.491 974.355,-325.341"/>
<polygon fill="#8b0000" stroke="#8b0000" points="973.141,-328.626 983.723,-329.157 975.782,-322.143 973.141,-328.626"/>
</g>
<!-- ann9 -->
<g id="node18" class="node"><title>ann9</title>
<polygon fill="none" stroke="gray" points="970,-205 825,-205 825,-169 976,-169 976,-199 970,-205"/>
<polyline fill="none" stroke="gray" points="970,-205 970,-199 "/>
<polyline fill="none" stroke="gray" points="976,-199 970,-199 "/>
<g id="a_node18_16"><a xlink:href="http://www.w3.org/ns/prov#role" xlink:title="&lt;TABLE&gt;">
<text text-anchor="start" x="835.5" y="-184" font-family="Times,serif" font-size="10.00">prov:role</text>
</a>
</g>
<g id="a_node18_17"><a xlink:href="http://provenance.elaine.uni-rostock.de/momodelToCompose" xlink:title="&lt;TABLE&gt;">
<text text-anchor="start" x="875.5" y="-184" font-family="Times,serif" font-size="10.00">mo:modelToCompose</text>
</a>
</g>
</g>
<!-- ann9&#45;&gt;b3 -->
<g id="edge16" class="edge"><title>ann9&#45;&gt;b3</title>
<path fill="none" stroke="gray" stroke-dasharray="5,2" d="M900.5,-205.178C900.5,-226.726 900.5,-261.635 900.5,-267.991"/>
</g>
<!-- b4&#45;&gt;n1 -->
<g id="edge18" class="edge"><title>b4&#45;&gt;n1</title>
<path fill="none" stroke="#8b0000" d="M208.015,-272.008C206.645,-274.785 202.523,-282.687 197.5,-288 184.471,-301.782 167.523,-314.441 153.134,-324.033"/>
<polygon fill="#8b0000" stroke="#8b0000" points="151.049,-321.214 144.564,-329.592 154.858,-327.087 151.049,-321.214"/>
</g>
<!-- ann10 -->
<g id="node20" class="node"><title>ann10</title>
<polygon fill="none" stroke="gray" points="244,-205 91,-205 91,-169 250,-169 250,-199 244,-205"/>
<polyline fill="none" stroke="gray" points="244,-205 244,-199 "/>
<polyline fill="none" stroke="gray" points="250,-199 244,-199 "/>
<g id="a_node20_18"><a xlink:href="http://www.w3.org/ns/prov#role" xlink:title="&lt;TABLE&gt;">
<text text-anchor="start" x="101.5" y="-184" font-family="Times,serif" font-size="10.00">prov:role</text>
</a>
</g>
<g id="a_node20_19"><a xlink:href="http://provenance.elaine.uni-rostock.de/swsoftwareToCompose" xlink:title="&lt;TABLE&gt;">
<text text-anchor="start" x="141.5" y="-184" font-family="Times,serif" font-size="10.00">sw:softwareToCompose</text>
</a>
</g>
</g>
<!-- ann10&#45;&gt;b4 -->
<g id="edge19" class="edge"><title>ann10&#45;&gt;b4</title>
<path fill="none" stroke="gray" stroke-dasharray="5,2" d="M178.559,-205.178C188.668,-226.726 205.045,-261.635 208.026,-267.991"/>
</g>
</g>
</svg>
