<?xml version="1.0" encoding="UTF-8" standalone="no"?>
<!DOCTYPE svg PUBLIC "-//W3C//DTD SVG 1.1//EN"
 "http://www.w3.org/Graphics/SVG/1.1/DTD/svg11.dtd">
<!-- Generated by graphviz version 2.38.0 (20140413.2041)
 -->
<!-- Title: G Pages: 1 -->
<svg width="1379pt" height="369pt"
 viewBox="0.00 0.00 1378.50 369.00" xmlns="http://www.w3.org/2000/svg" xmlns:xlink="http://www.w3.org/1999/xlink">
<g id="graph0" class="graph" transform="scale(1 1) rotate(0) translate(4 365)">
<title>G</title>
<polygon fill="white" stroke="none" points="-4,4 -4,-365 1374.5,-365 1374.5,4 -4,4"/>
<!-- n1 -->
<g id="node1" class="node"><title>n1</title>
<g id="a_node1"><a xlink:href="http://provenance.elaine.uni-rostock.de/aghr" xlink:title="ag:hr">
<polygon fill="#fed37f" stroke="black" points="162.265,-348.562 119,-361 75.7354,-348.562 75.7758,-328.438 162.224,-328.438 162.265,-348.562"/>
<text text-anchor="middle" x="119" y="-339.3" font-family="Times,serif" font-size="14.00">ag:hr</text>
</a>
</g>
</g>
<!-- ann1 -->
<g id="node2" class="node"><title>ann1</title>
<polygon fill="none" stroke="gray" points="176,-288 0,-288 0,-252 182,-252 182,-282 176,-288"/>
<polyline fill="none" stroke="gray" points="176,-288 176,-282 "/>
<polyline fill="none" stroke="gray" points="182,-282 176,-282 "/>
<g id="a_node2_0"><a xlink:href="http://www.w3.org/ns/prov#type" xlink:title="&lt;TABLE&gt;">
<text text-anchor="start" x="10" y="-274" font-family="Times,serif" font-size="10.00">prov:type</text>
</a>
</g>
<g id="a_node2_1"><a xlink:href="http://www.w3.org/ns/prov#Person" xlink:title="&lt;TABLE&gt;">
<text text-anchor="start" x="90" y="-274" font-family="Times,serif" font-size="10.00">prov:Person</text>
</a>
</g>
<g id="a_node2_2"><a xlink:href="http://xmlns.com/foaf/spec/#givenName" xlink:title="&lt;TABLE&gt;">
<text text-anchor="start" x="10" y="-261" font-family="Times,serif" font-size="10.00">foaf:givenName</text>
</a>
</g>
<text text-anchor="start" x="90" y="-261" font-family="Times,serif" font-size="10.00">Hendrikje Raben</text>
</g>
<!-- ann1&#45;&gt;n1 -->
<g id="edge1" class="edge"><title>ann1&#45;&gt;n1</title>
<path fill="none" stroke="gray" stroke-dasharray="5,2" d="M97.778,-288.187C102.633,-300.499 109.085,-316.858 113.595,-328.295"/>
</g>
<!-- n2 -->
<g id="node3" class="node"><title>n2</title>
<g id="a_node3"><a xlink:href="http://provenance.elaine.uni-rostock.de/moa3d" xlink:title="mo:a3d">
<ellipse fill="#fffc87" stroke="#808080" cx="816" cy="-343" rx="44.6926" ry="18"/>
<text text-anchor="middle" x="816" y="-339.3" font-family="Times,serif" font-size="14.00">mo:a3d</text>
</a>
</g>
</g>
<!-- ann2 -->
<g id="node4" class="node"><title>ann2</title>
<polygon fill="none" stroke="gray" points="1114.5,-288 727.5,-288 727.5,-252 1120.5,-252 1120.5,-282 1114.5,-288"/>
<polyline fill="none" stroke="gray" points="1114.5,-288 1114.5,-282 "/>
<polyline fill="none" stroke="gray" points="1120.5,-282 1114.5,-282 "/>
<g id="a_node4_3"><a xlink:href="http://www.w3.org/ns/prov#label" xlink:title="&lt;TABLE&gt;">
<text text-anchor="start" x="738" y="-274" font-family="Times,serif" font-size="10.00">prov:label</text>
</a>
</g>
<text text-anchor="start" x="794" y="-274" font-family="Times,serif" font-size="10.00">Anatomical 3D CAD model of the mandible with NURBS surfaces</text>
<g id="a_node4_4"><a xlink:href="http://provenance.elaine.uni-rostock.de/dafileType" xlink:title="&lt;TABLE&gt;">
<text text-anchor="start" x="738" y="-261" font-family="Times,serif" font-size="10.00">da:fileType</text>
</a>
</g>
<text text-anchor="start" x="794" y="-261" font-family="Times,serif" font-size="10.00">IGES</text>
</g>
<!-- ann2&#45;&gt;n2 -->
<g id="edge2" class="edge"><title>ann2&#45;&gt;n2</title>
<path fill="none" stroke="gray" stroke-dasharray="5,2" d="M898.131,-288.006C879.909,-299.986 855.758,-315.863 838.367,-327.295"/>
</g>
<!-- n3 -->
<g id="node5" class="node"><title>n3</title>
<g id="a_node5"><a xlink:href="http://provenance.elaine.uni-rostock.de/swcs" xlink:title="sw:cs">
<ellipse fill="#fffc87" stroke="#808080" cx="1233" cy="-343" rx="36.2938" ry="18"/>
<text text-anchor="middle" x="1233" y="-339.3" font-family="Times,serif" font-size="14.00">sw:cs</text>
</a>
</g>
</g>
<!-- ann3 -->
<g id="node6" class="node"><title>ann3</title>
<polygon fill="none" stroke="gray" points="1364.5,-288 1159.5,-288 1159.5,-252 1370.5,-252 1370.5,-282 1364.5,-288"/>
<polyline fill="none" stroke="gray" points="1364.5,-288 1364.5,-282 "/>
<polyline fill="none" stroke="gray" points="1370.5,-282 1364.5,-282 "/>
<g id="a_node6_5"><a xlink:href="http://www.w3.org/ns/prov#label" xlink:title="&lt;TABLE&gt;">
<text text-anchor="start" x="1170" y="-267" font-family="Times,serif" font-size="10.00">prov:label</text>
</a>
</g>
<text text-anchor="start" x="1221" y="-267" font-family="Times,serif" font-size="10.00">COMSOL Multiphysics v5.2a</text>
</g>
<!-- ann3&#45;&gt;n3 -->
<g id="edge3" class="edge"><title>ann3&#45;&gt;n3</title>
<path fill="none" stroke="gray" stroke-dasharray="5,2" d="M1257.25,-288.187C1252.22,-299.35 1245.69,-313.84 1240.67,-324.971"/>
</g>
<!-- n4 -->
<g id="node7" class="node"><title>n4</title>
<g id="a_node7"><a xlink:href="http://provenance.elaine.uni-rostock.de/moel:left:a3d" xlink:title="mo:el:left:a3d">
<ellipse fill="#fffc87" stroke="#808080" cx="472" cy="-343" rx="74.9875" ry="18"/>
<text text-anchor="middle" x="472" y="-339.3" font-family="Times,serif" font-size="14.00">mo:el:left:a3d</text>
</a>
</g>
</g>
<!-- ann4 -->
<g id="node8" class="node"><title>ann4</title>
<polygon fill="none" stroke="gray" points="682.5,-288 359.5,-288 359.5,-252 688.5,-252 688.5,-282 682.5,-288"/>
<polyline fill="none" stroke="gray" points="682.5,-288 682.5,-282 "/>
<polyline fill="none" stroke="gray" points="688.5,-282 682.5,-282 "/>
<g id="a_node8_6"><a xlink:href="http://www.w3.org/ns/prov#label" xlink:title="&lt;TABLE&gt;">
<text text-anchor="start" x="370" y="-274" font-family="Times,serif" font-size="10.00">prov:label</text>
</a>
</g>
<text text-anchor="start" x="426" y="-274" font-family="Times,serif" font-size="10.00">3D CAD model of Screw with NURBS surfaces (left)</text>
<g id="a_node8_7"><a xlink:href="http://provenance.elaine.uni-rostock.de/dafileType" xlink:title="&lt;TABLE&gt;">
<text text-anchor="start" x="370" y="-261" font-family="Times,serif" font-size="10.00">da:fileType</text>
</a>
</g>
<text text-anchor="start" x="426" y="-261" font-family="Times,serif" font-size="10.00">IGES</text>
</g>
<!-- ann4&#45;&gt;n4 -->
<g id="edge4" class="edge"><title>ann4&#45;&gt;n4</title>
<path fill="none" stroke="gray" stroke-dasharray="5,2" d="M511.412,-288.187C503.237,-299.35 492.624,-313.84 484.472,-324.971"/>
</g>
<!-- n5 -->
<g id="node9" class="node"><title>n5</title>
<g id="a_node9"><a xlink:href="http://provenance.elaine.uni-rostock.de/mogeom" xlink:title="mo:geom">
<ellipse fill="#fffc87" stroke="#808080" cx="421" cy="-104" rx="53.0913" ry="18"/>
<text text-anchor="middle" x="421" y="-100.3" font-family="Times,serif" font-size="14.00">mo:geom</text>
</a>
</g>
</g>
<!-- n6 -->
<g id="node11" class="node"><title>n6</title>
<g id="a_node11"><a xlink:href="http://provenance.elaine.uni-rostock.de/macomposition:a1" xlink:title="ma:composition:a1">
<polygon fill="#9fb1fc" stroke="#0000ff" points="603,-205 451,-205 451,-169 603,-169 603,-205"/>
<text text-anchor="middle" x="527" y="-183.3" font-family="Times,serif" font-size="14.00">ma:composition:a1</text>
</a>
</g>
</g>
<!-- n5&#45;&gt;n6 -->
<g id="edge7" class="edge"><title>n5&#45;&gt;n6</title>
<path fill="none" stroke="darkgreen" d="M433.44,-121.636C441.003,-131.014 451.253,-142.514 462,-151 467.809,-155.587 474.305,-159.885 480.882,-163.792"/>
<polygon fill="darkgreen" stroke="darkgreen" points="479.419,-166.986 489.845,-168.867 482.868,-160.894 479.419,-166.986"/>
<text text-anchor="middle" x="503" y="-143" font-family="Times,serif" font-size="10.00" fill="darkgreen">wasGeneratedBy</text>
</g>
<!-- ann5 -->
<g id="node10" class="node"><title>ann5</title>
<polygon fill="none" stroke="gray" points="578,-49 258,-49 258,-3.55271e-15 584,-3.55271e-15 584,-43 578,-49"/>
<polyline fill="none" stroke="gray" points="578,-49 578,-43 "/>
<polyline fill="none" stroke="gray" points="584,-43 578,-43 "/>
<g id="a_node10_8"><a xlink:href="http://www.w3.org/ns/prov#label" xlink:title="&lt;TABLE&gt;">
<text text-anchor="start" x="268" y="-34.5" font-family="Times,serif" font-size="10.00">prov:label</text>
</a>
</g>
<text text-anchor="start" x="337" y="-34.5" font-family="Times,serif" font-size="10.00">Geometrical 3D Model of composed Components</text>
<g id="a_node10_9"><a xlink:href="http://provenance.elaine.uni-rostock.de/dafileType" xlink:title="&lt;TABLE&gt;">
<text text-anchor="start" x="268" y="-21.5" font-family="Times,serif" font-size="10.00">da:fileType</text>
</a>
</g>
<text text-anchor="start" x="337" y="-21.5" font-family="Times,serif" font-size="10.00">mph</text>
<g id="a_node10_10"><a xlink:href="http://www.w3.org/2000/01/rdf-schema#comment" xlink:title="&lt;TABLE&gt;">
<text text-anchor="start" x="268" y="-8.5" font-family="Times,serif" font-size="10.00">rdfs:comment</text>
</a>
</g>
<text text-anchor="start" x="337" y="-8.5" font-family="Times,serif" font-size="10.00">This is part of the COMSOL project file</text>
</g>
<!-- ann5&#45;&gt;n5 -->
<g id="edge5" class="edge"><title>ann5&#45;&gt;n5</title>
<path fill="none" stroke="gray" stroke-dasharray="5,2" d="M421,-49.1737C421,-60.9254 421,-74.869 421,-85.6196"/>
</g>
<!-- b1 -->
<g id="node13" class="node"><title>b1</title>
<ellipse fill="gray" stroke="gray" cx="340" cy="-270" rx="1.8" ry="1.8"/>
</g>
<!-- n6&#45;&gt;b1 -->
<g id="edge8" class="edge"><title>n6&#45;&gt;b1</title>
<path fill="none" stroke="#8b0000" d="M450.942,-204.042C417.73,-213.823 379.864,-229.008 351,-252 345.281,-256.556 341.594,-264.931 340.412,-267.912"/>
<text text-anchor="middle" x="409" y="-226" font-family="Times,serif" font-size="10.00" fill="red">used</text>
</g>
<!-- b2 -->
<g id="node15" class="node"><title>b2</title>
<ellipse fill="gray" stroke="gray" cx="708" cy="-270" rx="1.8" ry="1.8"/>
</g>
<!-- n6&#45;&gt;b2 -->
<g id="edge11" class="edge"><title>n6&#45;&gt;b2</title>
<path fill="none" stroke="#8b0000" d="M603.072,-204.426C635.008,-214.198 670.936,-229.269 698,-252 703.454,-256.581 706.647,-264.94 707.652,-267.914"/>
<text text-anchor="middle" x="680" y="-226" font-family="Times,serif" font-size="10.00" fill="red">used</text>
</g>
<!-- b3 -->
<g id="node17" class="node"><title>b3</title>
<ellipse fill="gray" stroke="gray" cx="1140" cy="-270" rx="1.8" ry="1.8"/>
</g>
<!-- n6&#45;&gt;b3 -->
<g id="edge14" class="edge"><title>n6&#45;&gt;b3</title>
<path fill="none" stroke="#8b0000" d="M603.311,-203.369C606.919,-203.952 610.496,-204.499 614,-205 727.984,-221.284 1032.75,-190.356 1130,-252 1136.25,-255.96 1139.07,-265.34 1139.8,-268.175"/>
<text text-anchor="middle" x="1097" y="-226" font-family="Times,serif" font-size="10.00" fill="red">used</text>
</g>
<!-- b4 -->
<g id="node19" class="node"><title>b4</title>
<ellipse fill="gray" stroke="gray" cx="202" cy="-270" rx="1.8" ry="1.8"/>
</g>
<!-- n6&#45;&gt;b4 -->
<g id="edge17" class="edge"><title>n6&#45;&gt;b4</title>
<path fill="none" stroke="#fed37f" d="M450.955,-202.749C446.239,-203.544 441.558,-204.302 437,-205 369.319,-215.36 349.118,-201.841 284,-223 247.984,-234.703 209.901,-262.974 203.077,-268.171"/>
<text text-anchor="middle" x="330.5" y="-226" font-family="Times,serif" font-size="10.00">wasAssociatedWith</text>
</g>
<!-- ann6 -->
<g id="node12" class="node"><title>ann6</title>
<polygon fill="none" stroke="gray" points="653.5,-122 492.5,-122 492.5,-86 659.5,-86 659.5,-116 653.5,-122"/>
<polyline fill="none" stroke="gray" points="653.5,-122 653.5,-116 "/>
<polyline fill="none" stroke="gray" points="659.5,-116 653.5,-116 "/>
<g id="a_node12_11"><a xlink:href="http://www.w3.org/ns/prov#label" xlink:title="&lt;TABLE&gt;">
<text text-anchor="start" x="503" y="-101" font-family="Times,serif" font-size="10.00">prov:label</text>
</a>
</g>
<text text-anchor="start" x="554" y="-101" font-family="Times,serif" font-size="10.00">Modeling Geometry</text>
</g>
<!-- ann6&#45;&gt;n6 -->
<g id="edge6" class="edge"><title>ann6&#45;&gt;n6</title>
<path fill="none" stroke="gray" stroke-dasharray="5,2" d="M565.608,-122.178C557.293,-135.924 545.688,-155.107 537.377,-168.847"/>
</g>
<!-- b1&#45;&gt;n4 -->
<g id="edge9" class="edge"><title>b1&#45;&gt;n4</title>
<path fill="none" stroke="#8b0000" d="M340.429,-272.067C341.656,-274.994 345.446,-283.244 351,-288 369.95,-304.226 394.56,-316.396 416.633,-325.034"/>
<polygon fill="#8b0000" stroke="#8b0000" points="415.647,-328.402 426.239,-328.638 418.106,-321.848 415.647,-328.402"/>
</g>
<!-- ann7 -->
<g id="node14" class="node"><title>ann7</title>
<polygon fill="none" stroke="gray" points="422,-205 258,-205 258,-169 428,-169 428,-199 422,-205"/>
<polyline fill="none" stroke="gray" points="422,-205 422,-199 "/>
<polyline fill="none" stroke="gray" points="428,-199 422,-199 "/>
<g id="a_node14_12"><a xlink:href="http://www.w3.org/ns/prov#role" xlink:title="&lt;TABLE&gt;">
<text text-anchor="start" x="268" y="-184" font-family="Times,serif" font-size="10.00">prov:role</text>
</a>
</g>
<g id="a_node14_13"><a xlink:href="http://provenance.elaine.uni-rostock.de/momodelToCompose" xlink:title="&lt;TABLE&gt;">
<text text-anchor="start" x="314" y="-184" font-family="Times,serif" font-size="10.00">mo:modelToCompose</text>
</a>
</g>
</g>
<!-- ann7&#45;&gt;b1 -->
<g id="edge10" class="edge"><title>ann7&#45;&gt;b1</title>
<path fill="none" stroke="gray" stroke-dasharray="5,2" d="M342.364,-205.178C341.566,-226.726 340.273,-261.635 340.037,-267.991"/>
</g>
<!-- b2&#45;&gt;n2 -->
<g id="edge12" class="edge"><title>b2&#45;&gt;n2</title>
<path fill="none" stroke="#8b0000" d="M708.452,-272.042C709.736,-274.904 713.661,-283.004 719,-288 735.614,-303.547 757.533,-316.239 776.331,-325.402"/>
<polygon fill="#8b0000" stroke="#8b0000" points="775.012,-328.65 785.551,-329.741 777.993,-322.316 775.012,-328.65"/>
</g>
<!-- ann8 -->
<g id="node16" class="node"><title>ann8</title>
<polygon fill="none" stroke="gray" points="787,-205 623,-205 623,-169 793,-169 793,-199 787,-205"/>
<polyline fill="none" stroke="gray" points="787,-205 787,-199 "/>
<polyline fill="none" stroke="gray" points="793,-199 787,-199 "/>
<g id="a_node16_14"><a xlink:href="http://www.w3.org/ns/prov#role" xlink:title="&lt;TABLE&gt;">
<text text-anchor="start" x="633" y="-184" font-family="Times,serif" font-size="10.00">prov:role</text>
</a>
</g>
<g id="a_node16_15"><a xlink:href="http://provenance.elaine.uni-rostock.de/momodelToCompose" xlink:title="&lt;TABLE&gt;">
<text text-anchor="start" x="679" y="-184" font-family="Times,serif" font-size="10.00">mo:modelToCompose</text>
</a>
</g>
</g>
<!-- ann8&#45;&gt;b2 -->
<g id="edge13" class="edge"><title>ann8&#45;&gt;b2</title>
<path fill="none" stroke="gray" stroke-dasharray="5,2" d="M708,-205.178C708,-226.726 708,-261.635 708,-267.991"/>
</g>
<!-- b3&#45;&gt;n3 -->
<g id="edge15" class="edge"><title>b3&#45;&gt;n3</title>
<path fill="none" stroke="#8b0000" d="M1140.47,-272.021C1141.81,-274.831 1145.85,-282.809 1151,-288 1165.15,-302.264 1183.65,-314.84 1199.5,-324.259"/>
<polygon fill="#8b0000" stroke="#8b0000" points="1198.06,-327.469 1208.47,-329.429 1201.55,-321.404 1198.06,-327.469"/>
</g>
<!-- ann9 -->
<g id="node18" class="node"><title>ann9</title>
<polygon fill="none" stroke="gray" points="1224.5,-205 1049.5,-205 1049.5,-169 1230.5,-169 1230.5,-199 1224.5,-205"/>
<polyline fill="none" stroke="gray" points="1224.5,-205 1224.5,-199 "/>
<polyline fill="none" stroke="gray" points="1230.5,-199 1224.5,-199 "/>
<g id="a_node18_16"><a xlink:href="http://www.w3.org/ns/prov#role" xlink:title="&lt;TABLE&gt;">
<text text-anchor="start" x="1060" y="-184" font-family="Times,serif" font-size="10.00">prov:role</text>
</a>
</g>
<g id="a_node18_17"><a xlink:href="http://provenance.elaine.uni-rostock.de/swsoftwareToCompose" xlink:title="&lt;TABLE&gt;">
<text text-anchor="start" x="1106" y="-184" font-family="Times,serif" font-size="10.00">sw:softwareToCompose</text>
</a>
</g>
</g>
<!-- ann9&#45;&gt;b3 -->
<g id="edge16" class="edge"><title>ann9&#45;&gt;b3</title>
<path fill="none" stroke="gray" stroke-dasharray="5,2" d="M1140,-205.178C1140,-226.726 1140,-261.635 1140,-267.991"/>
</g>
<!-- b4&#45;&gt;n1 -->
<g id="edge18" class="edge"><title>b4&#45;&gt;n1</title>
<path fill="none" stroke="#fed37f" d="M201.511,-272.005C200.132,-274.773 195.988,-282.654 191,-288 178.845,-301.026 163.234,-313.161 149.658,-322.615"/>
<polygon fill="#fed37f" stroke="#fed37f" points="147.401,-319.916 141.086,-328.423 151.328,-325.711 147.401,-319.916"/>
</g>
<!-- ann10 -->
<g id="node20" class="node"><title>ann10</title>
<polygon fill="none" stroke="gray" points="233.5,-205 118.5,-205 118.5,-169 239.5,-169 239.5,-199 233.5,-205"/>
<polyline fill="none" stroke="gray" points="233.5,-205 233.5,-199 "/>
<polyline fill="none" stroke="gray" points="239.5,-199 233.5,-199 "/>
<g id="a_node20_18"><a xlink:href="http://www.w3.org/ns/prov#role" xlink:title="&lt;TABLE&gt;">
<text text-anchor="start" x="129" y="-184" font-family="Times,serif" font-size="10.00">prov:role</text>
</a>
</g>
<g id="a_node20_19"><a xlink:href="http://provenance.elaine.uni-rostock.de/agmodeler" xlink:title="&lt;TABLE&gt;">
<text text-anchor="start" x="175" y="-184" font-family="Times,serif" font-size="10.00">ag:modeler</text>
</a>
</g>
</g>
<!-- ann10&#45;&gt;b4 -->
<g id="edge19" class="edge"><title>ann10&#45;&gt;b4</title>
<path fill="none" stroke="gray" stroke-dasharray="5,2" d="M183.878,-205.178C189.996,-226.726 199.909,-261.635 201.713,-267.991"/>
</g>
</g>
</svg>
