<?xml version="1.0" encoding="UTF-8" standalone="no"?>
<!DOCTYPE svg PUBLIC "-//W3C//DTD SVG 1.1//EN"
 "http://www.w3.org/Graphics/SVG/1.1/DTD/svg11.dtd">
<!-- Generated by graphviz version 2.38.0 (20140413.2041)
 -->
<!-- Title: G Pages: 1 -->
<svg width="567pt" height="356pt"
 viewBox="0.00 0.00 567.00 356.00" xmlns="http://www.w3.org/2000/svg" xmlns:xlink="http://www.w3.org/1999/xlink">
<g id="graph0" class="graph" transform="scale(1 1) rotate(0) translate(4 352)">
<title>G</title>
<polygon fill="white" stroke="none" points="-4,4 -4,-352 563,-352 563,4 -4,4"/>
<!-- n1 -->
<g id="node1" class="node"><title>n1</title>
<g id="a_node1"><a xlink:href="http://provenance.elaine.uni-rostock.de/dastim_par" xlink:title="da:stim_par">
<ellipse fill="#fffc87" stroke="#808080" cx="123" cy="-330" rx="65.7887" ry="18"/>
<text text-anchor="middle" x="123" y="-326.3" font-family="Times,serif" font-size="14.00">da:stim_par</text>
</a>
</g>
</g>
<!-- ann1 -->
<g id="node2" class="node"><title>ann1</title>
<polygon fill="none" stroke="gray" points="180,-275 1.42109e-14,-275 1.42109e-14,-239 186,-239 186,-269 180,-275"/>
<polyline fill="none" stroke="gray" points="180,-275 180,-269 "/>
<polyline fill="none" stroke="gray" points="186,-269 180,-269 "/>
<g id="a_node2_0"><a xlink:href="http://www.w3.org/ns/prov#label" xlink:title="&lt;TABLE&gt;">
<text text-anchor="start" x="10" y="-254" font-family="Times,serif" font-size="10.00">prov:label</text>
</a>
</g>
<text text-anchor="start" x="61" y="-254" font-family="Times,serif" font-size="10.00">Stimulation parameters</text>
</g>
<!-- ann1&#45;&gt;n1 -->
<g id="edge1" class="edge"><title>ann1&#45;&gt;n1</title>
<path fill="none" stroke="gray" stroke-dasharray="5,2" d="M100.262,-275.187C104.979,-286.35 111.101,-300.84 115.805,-311.971"/>
</g>
<!-- n2 -->
<g id="node3" class="node"><title>n2</title>
<g id="a_node3"><a xlink:href="http://provenance.elaine.uni-rostock.de/aghr" xlink:title="ag:hr">
<polygon fill="#fed37f" stroke="black" points="323.265,-335.562 280,-348 236.735,-335.562 236.776,-315.438 323.224,-315.438 323.265,-335.562"/>
<text text-anchor="middle" x="280" y="-326.3" font-family="Times,serif" font-size="14.00">ag:hr</text>
</a>
</g>
</g>
<!-- ann2 -->
<g id="node4" class="node"><title>ann2</title>
<polygon fill="none" stroke="gray" points="425,-275 249,-275 249,-239 431,-239 431,-269 425,-275"/>
<polyline fill="none" stroke="gray" points="425,-275 425,-269 "/>
<polyline fill="none" stroke="gray" points="431,-269 425,-269 "/>
<g id="a_node4_1"><a xlink:href="http://www.w3.org/ns/prov#type" xlink:title="&lt;TABLE&gt;">
<text text-anchor="start" x="259" y="-261" font-family="Times,serif" font-size="10.00">prov:type</text>
</a>
</g>
<g id="a_node4_2"><a xlink:href="http://www.w3.org/ns/prov#Person" xlink:title="&lt;TABLE&gt;">
<text text-anchor="start" x="339" y="-261" font-family="Times,serif" font-size="10.00">prov:Person</text>
</a>
</g>
<g id="a_node4_3"><a xlink:href="http://xmlns.com/foaf/spec/#givenName" xlink:title="&lt;TABLE&gt;">
<text text-anchor="start" x="259" y="-248" font-family="Times,serif" font-size="10.00">foaf:givenName</text>
</a>
</g>
<text text-anchor="start" x="339" y="-248" font-family="Times,serif" font-size="10.00">Hendrikje Raben</text>
</g>
<!-- ann2&#45;&gt;n2 -->
<g id="edge2" class="edge"><title>ann2&#45;&gt;n2</title>
<path fill="none" stroke="gray" stroke-dasharray="5,2" d="M325.476,-275.187C315.071,-287.499 301.247,-303.858 291.582,-315.295"/>
</g>
<!-- n3 -->
<g id="node5" class="node"><title>n3</title>
<g id="a_node5"><a xlink:href="http://provenance.elaine.uni-rostock.de/maextract:rp" xlink:title="ma:extract:rp">
<polygon fill="#9fb1fc" stroke="#0000ff" points="342.5,-192 227.5,-192 227.5,-156 342.5,-156 342.5,-192"/>
<text text-anchor="middle" x="285" y="-170.3" font-family="Times,serif" font-size="14.00">ma:extract:rp</text>
</a>
</g>
</g>
<!-- n5 -->
<g id="node9" class="node"><title>n5</title>
<g id="a_node9"><a xlink:href="http://provenance.elaine.uni-rostock.de/ltp" xlink:title="lt:p">
<ellipse fill="#fffc87" stroke="#808080" cx="476" cy="-257" rx="27" ry="18"/>
<text text-anchor="middle" x="476" y="-253.3" font-family="Times,serif" font-size="14.00">lt:p</text>
</a>
</g>
</g>
<!-- n3&#45;&gt;n5 -->
<g id="edge7" class="edge"><title>n3&#45;&gt;n5</title>
<path fill="none" stroke="#8b0000" d="M328.006,-192.091C359.25,-204.668 402.457,-222.397 440,-239 441.802,-239.797 443.648,-240.627 445.507,-241.473"/>
<polygon fill="#8b0000" stroke="#8b0000" points="444.215,-244.731 454.76,-245.756 447.156,-238.379 444.215,-244.731"/>
<text text-anchor="middle" x="408" y="-213" font-family="Times,serif" font-size="10.00" fill="red">used</text>
</g>
<!-- b1 -->
<g id="node11" class="node"><title>b1</title>
<ellipse fill="gray" stroke="gray" cx="229" cy="-257" rx="1.8" ry="1.8"/>
</g>
<!-- n3&#45;&gt;b1 -->
<g id="edge8" class="edge"><title>n3&#45;&gt;b1</title>
<path fill="none" stroke="#fed37f" d="M272.594,-192.259C263.453,-205.069 250.788,-223.012 240,-239 235.91,-245.061 231.205,-252.496 229.584,-255.07"/>
<text text-anchor="middle" x="305.5" y="-213" font-family="Times,serif" font-size="10.00">wasAssociatedWith</text>
</g>
<!-- b2 -->
<g id="node12" class="node"><title>b2</title>
<ellipse fill="gray" stroke="gray" cx="206" cy="-257" rx="1.8" ry="1.8"/>
</g>
<!-- n3&#45;&gt;b2 -->
<g id="edge10" class="edge"><title>n3&#45;&gt;b2</title>
<path fill="none" stroke="#8b0000" d="M249.027,-192.112C241.072,-197.076 233.182,-203.065 227,-210 213.915,-224.679 207.651,-248.889 206.289,-254.712"/>
<text text-anchor="middle" x="238" y="-213" font-family="Times,serif" font-size="10.00" fill="red">used</text>
</g>
<!-- ann3 -->
<g id="node6" class="node"><title>ann3</title>
<polygon fill="none" stroke="gray" points="347,-109 185,-109 185,-73 353,-73 353,-103 347,-109"/>
<polyline fill="none" stroke="gray" points="347,-109 347,-103 "/>
<polyline fill="none" stroke="gray" points="353,-103 347,-103 "/>
<g id="a_node6_4"><a xlink:href="http://www.w3.org/ns/prov#label" xlink:title="&lt;TABLE&gt;">
<text text-anchor="start" x="195" y="-88" font-family="Times,serif" font-size="10.00">prov:label</text>
</a>
</g>
<text text-anchor="start" x="246" y="-88" font-family="Times,serif" font-size="10.00">Extract Information</text>
</g>
<!-- ann3&#45;&gt;n3 -->
<g id="edge3" class="edge"><title>ann3&#45;&gt;n3</title>
<path fill="none" stroke="gray" stroke-dasharray="5,2" d="M272.393,-109.178C275.108,-122.924 278.898,-142.107 281.612,-155.847"/>
</g>
<!-- n4 -->
<g id="node7" class="node"><title>n4</title>
<g id="a_node7"><a xlink:href="http://provenance.elaine.uni-rostock.de/aseqs" xlink:title="as:eqs">
<ellipse fill="#fffc87" stroke="#808080" cx="411" cy="-91" rx="40.0939" ry="18"/>
<text text-anchor="middle" x="411" y="-87.3" font-family="Times,serif" font-size="14.00">as:eqs</text>
</a>
</g>
</g>
<!-- n4&#45;&gt;n3 -->
<g id="edge6" class="edge"><title>n4&#45;&gt;n3</title>
<path fill="none" stroke="darkgreen" d="M389.052,-106.109C370.006,-118.354 342.091,-136.298 319.969,-150.52"/>
<polygon fill="darkgreen" stroke="darkgreen" points="318.019,-147.612 311.5,-155.964 321.805,-153.501 318.019,-147.612"/>
<text text-anchor="middle" x="396" y="-130" font-family="Times,serif" font-size="10.00" fill="darkgreen">wasGeneratedBy</text>
</g>
<!-- ann4 -->
<g id="node8" class="node"><title>ann4</title>
<polygon fill="none" stroke="gray" points="517,-36 299,-36 299,-0 523,-0 523,-30 517,-36"/>
<polyline fill="none" stroke="gray" points="517,-36 517,-30 "/>
<polyline fill="none" stroke="gray" points="523,-30 517,-30 "/>
<g id="a_node8_5"><a xlink:href="http://www.w3.org/ns/prov#label" xlink:title="&lt;TABLE&gt;">
<text text-anchor="start" x="309" y="-15" font-family="Times,serif" font-size="10.00">prov:label</text>
</a>
</g>
<text text-anchor="start" x="360" y="-15" font-family="Times,serif" font-size="10.00">Electro&#45;quasistatic assumptions</text>
</g>
<!-- ann4&#45;&gt;n4 -->
<g id="edge4" class="edge"><title>ann4&#45;&gt;n4</title>
<path fill="none" stroke="gray" stroke-dasharray="5,2" d="M411,-36.1871C411,-47.3501 411,-61.8398 411,-72.9712"/>
</g>
<!-- ann5 -->
<g id="node10" class="node"><title>ann5</title>
<polygon fill="none" stroke="gray" points="553,-192 393,-192 393,-156 559,-156 559,-186 553,-192"/>
<polyline fill="none" stroke="gray" points="553,-192 553,-186 "/>
<polyline fill="none" stroke="gray" points="559,-186 553,-186 "/>
<g id="a_node10_6"><a xlink:href="http://www.w3.org/ns/prov#label" xlink:title="&lt;TABLE&gt;">
<text text-anchor="start" x="403" y="-171" font-family="Times,serif" font-size="10.00">prov:label</text>
</a>
</g>
<text text-anchor="start" x="454" y="-171" font-family="Times,serif" font-size="10.00">Publication Plonsey</text>
</g>
<!-- ann5&#45;&gt;n5 -->
<g id="edge5" class="edge"><title>ann5&#45;&gt;n5</title>
<path fill="none" stroke="gray" stroke-dasharray="5,2" d="M476,-192.178C476,-205.924 476,-225.107 476,-238.847"/>
</g>
<!-- b1&#45;&gt;n2 -->
<g id="edge9" class="edge"><title>b1&#45;&gt;n2</title>
<path fill="none" stroke="#fed37f" d="M229.576,-258.935C231.177,-261.524 235.836,-268.99 240,-275 247.503,-285.829 256.17,-297.611 263.514,-307.399"/>
<polygon fill="#fed37f" stroke="#fed37f" points="260.745,-309.541 269.564,-315.413 266.332,-305.323 260.745,-309.541"/>
</g>
<!-- b2&#45;&gt;n1 -->
<g id="edge11" class="edge"><title>b2&#45;&gt;n1</title>
<path fill="none" stroke="#8b0000" d="M205.511,-259.005C204.132,-261.773 199.988,-269.654 195,-275 183.827,-286.974 169.734,-298.195 156.985,-307.272"/>
<polygon fill="#8b0000" stroke="#8b0000" points="154.656,-304.628 148.425,-313.197 158.64,-310.383 154.656,-304.628"/>
</g>
<!-- ann6 -->
<g id="node13" class="node"><title>ann6</title>
<polygon fill="none" stroke="gray" points="203.5,-192 32.5,-192 32.5,-156 209.5,-156 209.5,-186 203.5,-192"/>
<polyline fill="none" stroke="gray" points="203.5,-192 203.5,-186 "/>
<polyline fill="none" stroke="gray" points="209.5,-186 203.5,-186 "/>
<g id="a_node13_7"><a xlink:href="http://www.w3.org/ns/prov#role" xlink:title="&lt;TABLE&gt;">
<text text-anchor="start" x="43" y="-171" font-family="Times,serif" font-size="10.00">prov:role</text>
</a>
</g>
<g id="a_node13_8"><a xlink:href="http://provenance.elaine.uni-rostock.de/dainformationToFilter" xlink:title="&lt;TABLE&gt;">
<text text-anchor="start" x="89" y="-171" font-family="Times,serif" font-size="10.00">da:informationToFilter</text>
</a>
</g>
</g>
<!-- ann6&#45;&gt;b2 -->
<g id="edge12" class="edge"><title>ann6&#45;&gt;b2</title>
<path fill="none" stroke="gray" stroke-dasharray="5,2" d="M144.203,-192.25C159.607,-204.35 179.726,-221.444 195,-239 199.799,-244.516 204.062,-252.291 205.491,-255.013"/>
</g>
</g>
</svg>
