<?xml version="1.0" encoding="UTF-8" standalone="no"?>
<!DOCTYPE svg PUBLIC "-//W3C//DTD SVG 1.1//EN"
 "http://www.w3.org/Graphics/SVG/1.1/DTD/svg11.dtd">
<!-- Generated by graphviz version 2.38.0 (20140413.2041)
 -->
<!-- Title: G Pages: 1 -->
<svg width="533pt" height="356pt"
 viewBox="0.00 0.00 532.80 356.00" xmlns="http://www.w3.org/2000/svg" xmlns:xlink="http://www.w3.org/1999/xlink">
<g id="graph0" class="graph" transform="scale(1 1) rotate(0) translate(4 352)">
<title>G</title>
<polygon fill="white" stroke="none" points="-4,4 -4,-352 528.8,-352 528.8,4 -4,4"/>
<!-- n1 -->
<g id="node1" class="node"><title>n1</title>
<g id="a_node1"><a xlink:href="http://provenance.elaine.uni-rostock.de/aghr" xlink:title="ag:hr">
<polygon fill="#fed37f" stroke="black" points="104.997,-335.562 69.8,-348 34.6025,-335.562 34.6354,-315.438 104.965,-315.438 104.997,-335.562"/>
<text text-anchor="middle" x="69.8" y="-326.3" font-family="Times,serif" font-size="14.00">ag:hr</text>
</a>
</g>
</g>
<!-- ann1 -->
<g id="node2" class="node"><title>ann1</title>
<polygon fill="none" stroke="gray" points="174.3,-275 21.3,-275 21.3,-239 180.3,-239 180.3,-269 174.3,-275"/>
<polyline fill="none" stroke="gray" points="174.3,-275 174.3,-269 "/>
<polyline fill="none" stroke="gray" points="180.3,-269 174.3,-269 "/>
<g id="a_node2_0"><a xlink:href="http://www.w3.org/ns/prov#type" xlink:title="&lt;TABLE&gt;">
<text text-anchor="start" x="31.8" y="-261" font-family="Times,serif" font-size="10.00">prov:type</text>
</a>
</g>
<g id="a_node2_1"><a xlink:href="http://www.w3.org/ns/prov#Person" xlink:title="&lt;TABLE&gt;">
<text text-anchor="start" x="100.8" y="-261" font-family="Times,serif" font-size="10.00">prov:Person</text>
</a>
</g>
<g id="a_node2_2"><a xlink:href="http://xmlns.com/foaf/spec/#givenName" xlink:title="&lt;TABLE&gt;">
<text text-anchor="start" x="31.8" y="-248" font-family="Times,serif" font-size="10.00">foaf:givenName</text>
</a>
</g>
<text text-anchor="start" x="100.8" y="-248" font-family="Times,serif" font-size="10.00">Hendrikje Raben</text>
</g>
<!-- ann1&#45;&gt;n1 -->
<g id="edge1" class="edge"><title>ann1&#45;&gt;n1</title>
<path fill="none" stroke="gray" stroke-dasharray="5,2" d="M93.2958,-275.187C87.9201,-287.499 80.7774,-303.858 75.784,-315.295"/>
</g>
<!-- n2 -->
<g id="node3" class="node"><title>n2</title>
<g id="a_node3"><a xlink:href="http://provenance.elaine.uni-rostock.de/maextract:rp" xlink:title="ma:extract:rp">
<polygon fill="#9fb1fc" stroke="#0000ff" points="306.3,-192 217.3,-192 217.3,-156 306.3,-156 306.3,-192"/>
<text text-anchor="middle" x="261.8" y="-170.3" font-family="Times,serif" font-size="14.00">ma:extract:rp</text>
</a>
</g>
</g>
<!-- n3 -->
<g id="node5" class="node"><title>n3</title>
<g id="a_node5"><a xlink:href="http://provenance.elaine.uni-rostock.de/ltp" xlink:title="lt:p">
<ellipse fill="#fffc87" stroke="#808080" cx="224.8" cy="-257" rx="27" ry="18"/>
<text text-anchor="middle" x="224.8" y="-253.3" font-family="Times,serif" font-size="14.00">lt:p</text>
</a>
</g>
</g>
<!-- n2&#45;&gt;n3 -->
<g id="edge8" class="edge"><title>n2&#45;&gt;n3</title>
<path fill="none" stroke="#8b0000" d="M253.953,-192.178C248.898,-203.244 242.234,-217.835 236.553,-230.271"/>
<polygon fill="#8b0000" stroke="#8b0000" points="233.228,-229.125 232.257,-239.675 239.595,-232.034 233.228,-229.125"/>
<text text-anchor="middle" x="255.3" y="-213" font-family="Times,serif" font-size="10.00" fill="red">used</text>
</g>
<!-- b1 -->
<g id="node11" class="node"><title>b1</title>
<ellipse fill="gray" stroke="gray" cx="1.8" cy="-257" rx="1.8" ry="1.8"/>
</g>
<!-- n2&#45;&gt;b1 -->
<g id="edge6" class="edge"><title>n2&#45;&gt;b1</title>
<path fill="none" stroke="#fed37f" d="M217.239,-188.778C213.378,-189.896 209.525,-190.984 205.8,-192 120.209,-215.339 83.0448,-186.134 11.8,-239 5.86043,-243.407 2.82474,-252.48 2.0211,-255.207"/>
<text text-anchor="middle" x="106.8" y="-213" font-family="Times,serif" font-size="10.00">wasAssociatedWith</text>
</g>
<!-- b2 -->
<g id="node12" class="node"><title>b2</title>
<ellipse fill="gray" stroke="gray" cx="447.8" cy="-257" rx="1.8" ry="1.8"/>
</g>
<!-- n2&#45;&gt;b2 -->
<g id="edge10" class="edge"><title>n2&#45;&gt;b2</title>
<path fill="none" stroke="#8b0000" d="M306.325,-183.005C344.237,-191.628 398.493,-208.429 436.8,-239 442.515,-243.561 446.205,-251.933 447.388,-254.912"/>
<text text-anchor="middle" x="416.3" y="-213" font-family="Times,serif" font-size="10.00" fill="red">used</text>
</g>
<!-- ann2 -->
<g id="node4" class="node"><title>ann2</title>
<polygon fill="none" stroke="gray" points="289.3,-109 150.3,-109 150.3,-73 295.3,-73 295.3,-103 289.3,-109"/>
<polyline fill="none" stroke="gray" points="289.3,-109 289.3,-103 "/>
<polyline fill="none" stroke="gray" points="295.3,-103 289.3,-103 "/>
<g id="a_node4_3"><a xlink:href="http://www.w3.org/ns/prov#label" xlink:title="&lt;TABLE&gt;">
<text text-anchor="start" x="160.8" y="-88" font-family="Times,serif" font-size="10.00">prov:label</text>
</a>
</g>
<text text-anchor="start" x="205.8" y="-88" font-family="Times,serif" font-size="10.00">Extract Information</text>
</g>
<!-- ann2&#45;&gt;n2 -->
<g id="edge2" class="edge"><title>ann2&#45;&gt;n2</title>
<path fill="none" stroke="gray" stroke-dasharray="5,2" d="M231.071,-109.178C237.689,-122.924 246.926,-142.107 253.541,-155.847"/>
</g>
<!-- ann3 -->
<g id="node6" class="node"><title>ann3</title>
<polygon fill="none" stroke="gray" points="191.3,-192 50.3,-192 50.3,-156 197.3,-156 197.3,-186 191.3,-192"/>
<polyline fill="none" stroke="gray" points="191.3,-192 191.3,-186 "/>
<polyline fill="none" stroke="gray" points="197.3,-186 191.3,-186 "/>
<g id="a_node6_4"><a xlink:href="http://www.w3.org/ns/prov#label" xlink:title="&lt;TABLE&gt;">
<text text-anchor="start" x="60.8" y="-171" font-family="Times,serif" font-size="10.00">prov:label</text>
</a>
</g>
<text text-anchor="start" x="105.8" y="-171" font-family="Times,serif" font-size="10.00">Publication Plonsey</text>
</g>
<!-- ann3&#45;&gt;n3 -->
<g id="edge3" class="edge"><title>ann3&#45;&gt;n3</title>
<path fill="none" stroke="gray" stroke-dasharray="5,2" d="M125.259,-192.21C126.912,-201.781 130.412,-213.281 137.8,-221 154.42,-238.365 166.57,-229.856 188.8,-239 193.658,-240.998 198.804,-243.308 203.64,-245.569"/>
</g>
<!-- n4 -->
<g id="node7" class="node"><title>n4</title>
<g id="a_node7"><a xlink:href="http://provenance.elaine.uni-rostock.de/aseqs" xlink:title="as:eqs">
<ellipse fill="#fffc87" stroke="#808080" cx="345.8" cy="-91" rx="32.4942" ry="18"/>
<text text-anchor="middle" x="345.8" y="-87.3" font-family="Times,serif" font-size="14.00">as:eqs</text>
</a>
</g>
</g>
<!-- n4&#45;&gt;n2 -->
<g id="edge9" class="edge"><title>n4&#45;&gt;n2</title>
<path fill="none" stroke="darkgreen" d="M330.393,-106.857C318.244,-118.571 301.053,-135.149 286.92,-148.777"/>
<polygon fill="darkgreen" stroke="darkgreen" points="284.204,-146.534 279.435,-155.995 289.063,-151.573 284.204,-146.534"/>
<text text-anchor="middle" x="344.8" y="-130" font-family="Times,serif" font-size="10.00" fill="darkgreen">wasGeneratedBy</text>
</g>
<!-- ann4 -->
<g id="node8" class="node"><title>ann4</title>
<polygon fill="none" stroke="gray" points="436.8,-36 248.8,-36 248.8,-0 442.8,-0 442.8,-30 436.8,-36"/>
<polyline fill="none" stroke="gray" points="436.8,-36 436.8,-30 "/>
<polyline fill="none" stroke="gray" points="442.8,-30 436.8,-30 "/>
<g id="a_node8_5"><a xlink:href="http://www.w3.org/ns/prov#label" xlink:title="&lt;TABLE&gt;">
<text text-anchor="start" x="258.8" y="-15" font-family="Times,serif" font-size="10.00">prov:label</text>
</a>
</g>
<text text-anchor="start" x="303.8" y="-15" font-family="Times,serif" font-size="10.00">Electro&#45;quasistatic assumptions</text>
</g>
<!-- ann4&#45;&gt;n4 -->
<g id="edge4" class="edge"><title>ann4&#45;&gt;n4</title>
<path fill="none" stroke="gray" stroke-dasharray="5,2" d="M345.8,-36.1871C345.8,-47.3501 345.8,-61.8398 345.8,-72.9712"/>
</g>
<!-- n5 -->
<g id="node9" class="node"><title>n5</title>
<g id="a_node9"><a xlink:href="http://provenance.elaine.uni-rostock.de/dastim_par" xlink:title="da:stim_par">
<ellipse fill="#fffc87" stroke="#808080" cx="379.8" cy="-330" rx="52.7911" ry="18"/>
<text text-anchor="middle" x="379.8" y="-326.3" font-family="Times,serif" font-size="14.00">da:stim_par</text>
</a>
</g>
</g>
<!-- ann5 -->
<g id="node10" class="node"><title>ann5</title>
<polygon fill="none" stroke="gray" points="422.3,-275 269.3,-275 269.3,-239 428.3,-239 428.3,-269 422.3,-275"/>
<polyline fill="none" stroke="gray" points="422.3,-275 422.3,-269 "/>
<polyline fill="none" stroke="gray" points="428.3,-269 422.3,-269 "/>
<g id="a_node10_6"><a xlink:href="http://www.w3.org/ns/prov#label" xlink:title="&lt;TABLE&gt;">
<text text-anchor="start" x="279.8" y="-254" font-family="Times,serif" font-size="10.00">prov:label</text>
</a>
</g>
<text text-anchor="start" x="324.8" y="-254" font-family="Times,serif" font-size="10.00">Stimulation parameters</text>
</g>
<!-- ann5&#45;&gt;n5 -->
<g id="edge5" class="edge"><title>ann5&#45;&gt;n5</title>
<path fill="none" stroke="gray" stroke-dasharray="5,2" d="M356.304,-275.187C361.178,-286.35 367.505,-300.84 372.365,-311.971"/>
</g>
<!-- b1&#45;&gt;n1 -->
<g id="edge7" class="edge"><title>b1&#45;&gt;n1</title>
<path fill="none" stroke="#fed37f" d="M2.25262,-258.983C3.5265,-261.695 7.3415,-269.446 11.8,-275 21.5718,-287.173 34.0749,-299.163 44.9686,-308.741"/>
<polygon fill="#fed37f" stroke="#fed37f" points="42.6882,-311.396 52.5545,-315.257 47.2494,-306.086 42.6882,-311.396"/>
</g>
<!-- b2&#45;&gt;n5 -->
<g id="edge11" class="edge"><title>b2&#45;&gt;n5</title>
<path fill="none" stroke="#8b0000" d="M447.278,-258.976C445.814,-261.668 441.473,-269.376 436.8,-275 427.726,-285.92 416.6,-296.893 406.594,-306.068"/>
<polygon fill="#8b0000" stroke="#8b0000" points="403.971,-303.72 398.87,-313.006 408.648,-308.927 403.971,-303.72"/>
</g>
<!-- ann6 -->
<g id="node13" class="node"><title>ann6</title>
<polygon fill="none" stroke="gray" points="518.8,-192 370.8,-192 370.8,-156 524.8,-156 524.8,-186 518.8,-192"/>
<polyline fill="none" stroke="gray" points="518.8,-192 518.8,-186 "/>
<polyline fill="none" stroke="gray" points="524.8,-186 518.8,-186 "/>
<g id="a_node13_7"><a xlink:href="http://www.w3.org/ns/prov#role" xlink:title="&lt;TABLE&gt;">
<text text-anchor="start" x="380.8" y="-171" font-family="Times,serif" font-size="10.00">prov:role</text>
</a>
</g>
<g id="a_node13_8"><a xlink:href="http://provenance.elaine.uni-rostock.de/dainformationToFilter" xlink:title="&lt;TABLE&gt;">
<text text-anchor="start" x="420.8" y="-171" font-family="Times,serif" font-size="10.00">da:informationToFilter</text>
</a>
</g>
</g>
<!-- ann6&#45;&gt;b2 -->
<g id="edge12" class="edge"><title>ann6&#45;&gt;b2</title>
<path fill="none" stroke="gray" stroke-dasharray="5,2" d="M447.8,-192.178C447.8,-213.726 447.8,-248.635 447.8,-254.991"/>
</g>
</g>
</svg>
