<?xml version="1.0" encoding="UTF-8" standalone="no"?>
<!DOCTYPE svg PUBLIC "-//W3C//DTD SVG 1.1//EN"
 "http://www.w3.org/Graphics/SVG/1.1/DTD/svg11.dtd">
<!-- Generated by graphviz version 2.38.0 (20140413.2041)
 -->
<!-- Title: G Pages: 1 -->
<svg width="829pt" height="356pt"
 viewBox="0.00 0.00 829.00 356.00" xmlns="http://www.w3.org/2000/svg" xmlns:xlink="http://www.w3.org/1999/xlink">
<g id="graph0" class="graph" transform="scale(1 1) rotate(0) translate(4 352)">
<title>G</title>
<polygon fill="white" stroke="none" points="-4,4 -4,-352 825,-352 825,4 -4,4"/>
<!-- n1 -->
<g id="node1" class="node"><title>n1</title>
<g id="a_node1"><a xlink:href="http://provenance.elaine.uni-rostock.de/mor3d" xlink:title="mo:r3d">
<ellipse fill="#fffc87" stroke="#808080" cx="444.5" cy="-91" rx="44.393" ry="18"/>
<text text-anchor="middle" x="444.5" y="-87.3" font-family="Times,serif" font-size="14.00">mo:r3d</text>
</a>
</g>
</g>
<!-- n2 -->
<g id="node3" class="node"><title>n2</title>
<g id="a_node3"><a xlink:href="http://provenance.elaine.uni-rostock.de/mageneration:a1" xlink:title="ma:generation:a1">
<polygon fill="#9fb1fc" stroke="#0000ff" points="616.5,-192 474.5,-192 474.5,-156 616.5,-156 616.5,-192"/>
<text text-anchor="middle" x="545.5" y="-170.3" font-family="Times,serif" font-size="14.00">ma:generation:a1</text>
</a>
</g>
</g>
<!-- n1&#45;&gt;n2 -->
<g id="edge6" class="edge"><title>n1&#45;&gt;n2</title>
<path fill="none" stroke="darkgreen" d="M457.846,-108.393C465.878,-117.69 476.628,-129.19 487.5,-138 492.902,-142.378 498.903,-146.6 504.938,-150.506"/>
<polygon fill="darkgreen" stroke="darkgreen" points="503.398,-153.67 513.737,-155.982 507.097,-147.727 503.398,-153.67"/>
<text text-anchor="middle" x="528.5" y="-130" font-family="Times,serif" font-size="10.00" fill="darkgreen">wasGeneratedBy</text>
</g>
<!-- ann1 -->
<g id="node2" class="node"><title>ann1</title>
<polygon fill="none" stroke="gray" points="601,-36 282,-36 282,-0 607,-0 607,-30 601,-36"/>
<polyline fill="none" stroke="gray" points="601,-36 601,-30 "/>
<polyline fill="none" stroke="gray" points="607,-30 601,-30 "/>
<g id="a_node2_0"><a xlink:href="http://www.w3.org/ns/prov#label" xlink:title="&lt;TABLE&gt;">
<text text-anchor="start" x="292.5" y="-22" font-family="Times,serif" font-size="10.00">prov:label</text>
</a>
</g>
<text text-anchor="start" x="348.5" y="-22" font-family="Times,serif" font-size="10.00">Raw 3D Model with unwanted geometrical features</text>
<g id="a_node2_1"><a xlink:href="http://provenance.elaine.uni-rostock.de/dafileType" xlink:title="&lt;TABLE&gt;">
<text text-anchor="start" x="292.5" y="-9" font-family="Times,serif" font-size="10.00">da:fileType</text>
</a>
</g>
<text text-anchor="start" x="348.5" y="-9" font-family="Times,serif" font-size="10.00">STL</text>
</g>
<!-- ann1&#45;&gt;n1 -->
<g id="edge1" class="edge"><title>ann1&#45;&gt;n1</title>
<path fill="none" stroke="gray" stroke-dasharray="5,2" d="M444.5,-36.1871C444.5,-47.3501 444.5,-61.8398 444.5,-72.9712"/>
</g>
<!-- b1 -->
<g id="node11" class="node"><title>b1</title>
<ellipse fill="gray" stroke="gray" cx="202.5" cy="-257" rx="1.8" ry="1.8"/>
</g>
<!-- n2&#45;&gt;b1 -->
<g id="edge7" class="edge"><title>n2&#45;&gt;b1</title>
<path fill="none" stroke="#8b0000" d="M474.419,-190.201C471.407,-190.815 468.424,-191.417 465.5,-192 353.77,-214.287 308.142,-175.571 213.5,-239 207.192,-243.227 203.698,-252.424 202.76,-255.194"/>
<text text-anchor="middle" x="281.5" y="-213" font-family="Times,serif" font-size="10.00" fill="red">used</text>
</g>
<!-- b2 -->
<g id="node13" class="node"><title>b2</title>
<ellipse fill="gray" stroke="gray" cx="426.5" cy="-257" rx="1.8" ry="1.8"/>
</g>
<!-- n2&#45;&gt;b2 -->
<g id="edge10" class="edge"><title>n2&#45;&gt;b2</title>
<path fill="none" stroke="#fed37f" d="M528.418,-192.146C518.141,-201.694 504.391,-213.194 490.5,-221 468.813,-233.187 457.123,-223.709 437.5,-239 431.732,-243.494 428.075,-251.908 426.907,-254.905"/>
<text text-anchor="middle" x="553" y="-213" font-family="Times,serif" font-size="10.00">wasAssociatedWith</text>
</g>
<!-- b3 -->
<g id="node15" class="node"><title>b3</title>
<ellipse fill="gray" stroke="gray" cx="762.5" cy="-257" rx="1.8" ry="1.8"/>
</g>
<!-- n2&#45;&gt;b3 -->
<g id="edge13" class="edge"><title>n2&#45;&gt;b3</title>
<path fill="none" stroke="#8b0000" d="M616.745,-183.813C659.746,-192.134 713.564,-208.187 752.5,-239 758.085,-243.42 761.196,-251.88 762.166,-254.897"/>
<text text-anchor="middle" x="733.5" y="-213" font-family="Times,serif" font-size="10.00" fill="red">used</text>
</g>
<!-- ann2 -->
<g id="node4" class="node"><title>ann2</title>
<polygon fill="none" stroke="gray" points="708.5,-109 506.5,-109 506.5,-73 714.5,-73 714.5,-103 708.5,-109"/>
<polyline fill="none" stroke="gray" points="708.5,-109 708.5,-103 "/>
<polyline fill="none" stroke="gray" points="714.5,-103 708.5,-103 "/>
<g id="a_node4_2"><a xlink:href="http://www.w3.org/ns/prov#label" xlink:title="&lt;TABLE&gt;">
<text text-anchor="start" x="516.5" y="-88" font-family="Times,serif" font-size="10.00">prov:label</text>
</a>
</g>
<text text-anchor="start" x="567.5" y="-88" font-family="Times,serif" font-size="10.00">Register and Segment Slices</text>
</g>
<!-- ann2&#45;&gt;n2 -->
<g id="edge2" class="edge"><title>ann2&#45;&gt;n2</title>
<path fill="none" stroke="gray" stroke-dasharray="5,2" d="M596.715,-109.178C585.684,-122.924 570.29,-142.107 559.265,-155.847"/>
</g>
<!-- n3 -->
<g id="node5" class="node"><title>n3</title>
<g id="a_node5"><a xlink:href="http://provenance.elaine.uni-rostock.de/dactd" xlink:title="da:ctd">
<ellipse fill="#fffc87" stroke="#808080" cx="642.5" cy="-330" rx="40.0939" ry="18"/>
<text text-anchor="middle" x="642.5" y="-326.3" font-family="Times,serif" font-size="14.00">da:ctd</text>
</a>
</g>
</g>
<!-- ann3 -->
<g id="node6" class="node"><title>ann3</title>
<polygon fill="none" stroke="gray" points="737,-275 446,-275 446,-239 743,-239 743,-269 737,-275"/>
<polyline fill="none" stroke="gray" points="737,-275 737,-269 "/>
<polyline fill="none" stroke="gray" points="743,-269 737,-269 "/>
<g id="a_node6_3"><a xlink:href="http://www.w3.org/ns/prov#label" xlink:title="&lt;TABLE&gt;">
<text text-anchor="start" x="456.5" y="-261" font-family="Times,serif" font-size="10.00">prov:label</text>
</a>
</g>
<text text-anchor="start" x="512.5" y="-261" font-family="Times,serif" font-size="10.00">CT data of the patient with critical size defect</text>
<g id="a_node6_4"><a xlink:href="http://provenance.elaine.uni-rostock.de/dafileType" xlink:title="&lt;TABLE&gt;">
<text text-anchor="start" x="456.5" y="-248" font-family="Times,serif" font-size="10.00">da:fileType</text>
</a>
</g>
<text text-anchor="start" x="512.5" y="-248" font-family="Times,serif" font-size="10.00">DICOM</text>
</g>
<!-- ann3&#45;&gt;n3 -->
<g id="edge3" class="edge"><title>ann3&#45;&gt;n3</title>
<path fill="none" stroke="gray" stroke-dasharray="5,2" d="M606.119,-275.187C613.777,-286.514 623.751,-301.267 631.318,-312.46"/>
</g>
<!-- n4 -->
<g id="node7" class="node"><title>n4</title>
<g id="a_node7"><a xlink:href="http://provenance.elaine.uni-rostock.de/swmm" xlink:title="sw:mm">
<ellipse fill="#fffc87" stroke="#808080" cx="119.5" cy="-330" rx="44.393" ry="18"/>
<text text-anchor="middle" x="119.5" y="-326.3" font-family="Times,serif" font-size="14.00">sw:mm</text>
</a>
</g>
</g>
<!-- ann4 -->
<g id="node8" class="node"><title>ann4</title>
<polygon fill="none" stroke="gray" points="177,-275 0,-275 0,-239 183,-239 183,-269 177,-275"/>
<polyline fill="none" stroke="gray" points="177,-275 177,-269 "/>
<polyline fill="none" stroke="gray" points="183,-269 177,-269 "/>
<g id="a_node8_5"><a xlink:href="http://www.w3.org/ns/prov#label" xlink:title="&lt;TABLE&gt;">
<text text-anchor="start" x="10.5" y="-254" font-family="Times,serif" font-size="10.00">prov:label</text>
</a>
</g>
<text text-anchor="start" x="61.5" y="-254" font-family="Times,serif" font-size="10.00">Materialise Mimics v19</text>
</g>
<!-- ann4&#45;&gt;n4 -->
<g id="edge4" class="edge"><title>ann4&#45;&gt;n4</title>
<path fill="none" stroke="gray" stroke-dasharray="5,2" d="M98.278,-275.187C102.68,-286.35 108.395,-300.84 112.784,-311.971"/>
</g>
<!-- n5 -->
<g id="node9" class="node"><title>n5</title>
<g id="a_node9"><a xlink:href="http://provenance.elaine.uni-rostock.de/aguz" xlink:title="ag:uz">
<polygon fill="#fed37f" stroke="black" points="386.872,-335.562 342.5,-348 298.128,-335.562 298.17,-315.438 386.83,-315.438 386.872,-335.562"/>
<text text-anchor="middle" x="342.5" y="-326.3" font-family="Times,serif" font-size="14.00">ag:uz</text>
</a>
</g>
</g>
<!-- ann5 -->
<g id="node10" class="node"><title>ann5</title>
<polygon fill="none" stroke="gray" points="400.5,-275 222.5,-275 222.5,-239 406.5,-239 406.5,-269 400.5,-275"/>
<polyline fill="none" stroke="gray" points="400.5,-275 400.5,-269 "/>
<polyline fill="none" stroke="gray" points="406.5,-269 400.5,-269 "/>
<g id="a_node10_6"><a xlink:href="http://www.w3.org/ns/prov#type" xlink:title="&lt;TABLE&gt;">
<text text-anchor="start" x="232.5" y="-261" font-family="Times,serif" font-size="10.00">prov:type</text>
</a>
</g>
<g id="a_node10_7"><a xlink:href="http://www.w3.org/ns/prov#Person" xlink:title="&lt;TABLE&gt;">
<text text-anchor="start" x="312.5" y="-261" font-family="Times,serif" font-size="10.00">prov:Person</text>
</a>
</g>
<g id="a_node10_8"><a xlink:href="http://xmlns.com/foaf/spec/#givenName" xlink:title="&lt;TABLE&gt;">
<text text-anchor="start" x="232.5" y="-248" font-family="Times,serif" font-size="10.00">foaf:givenName</text>
</a>
</g>
<text text-anchor="start" x="312.5" y="-248" font-family="Times,serif" font-size="10.00">Ulf Zimmermann</text>
</g>
<!-- ann5&#45;&gt;n5 -->
<g id="edge5" class="edge"><title>ann5&#45;&gt;n5</title>
<path fill="none" stroke="gray" stroke-dasharray="5,2" d="M321.278,-275.187C326.133,-287.499 332.585,-303.858 337.095,-315.295"/>
</g>
<!-- b1&#45;&gt;n4 -->
<g id="edge8" class="edge"><title>b1&#45;&gt;n4</title>
<path fill="none" stroke="#8b0000" d="M202.011,-259.005C200.632,-261.773 196.488,-269.654 191.5,-275 179.695,-287.651 164.63,-299.462 151.335,-308.792"/>
<polygon fill="#8b0000" stroke="#8b0000" points="149.189,-306.019 142.905,-314.549 153.137,-311.8 149.189,-306.019"/>
</g>
<!-- ann6 -->
<g id="node12" class="node"><title>ann6</title>
<polygon fill="none" stroke="gray" points="279.5,-192 119.5,-192 119.5,-156 285.5,-156 285.5,-186 279.5,-192"/>
<polyline fill="none" stroke="gray" points="279.5,-192 279.5,-186 "/>
<polyline fill="none" stroke="gray" points="285.5,-186 279.5,-186 "/>
<g id="a_node12_9"><a xlink:href="http://www.w3.org/ns/prov#role" xlink:title="&lt;TABLE&gt;">
<text text-anchor="start" x="129.5" y="-171" font-family="Times,serif" font-size="10.00">prov:role</text>
</a>
</g>
<g id="a_node12_10"><a xlink:href="http://provenance.elaine.uni-rostock.de/swsoftwareToModel" xlink:title="&lt;TABLE&gt;">
<text text-anchor="start" x="175.5" y="-171" font-family="Times,serif" font-size="10.00">sw:softwareToModel</text>
</a>
</g>
</g>
<!-- ann6&#45;&gt;b1 -->
<g id="edge9" class="edge"><title>ann6&#45;&gt;b1</title>
<path fill="none" stroke="gray" stroke-dasharray="5,2" d="M202.5,-192.178C202.5,-213.726 202.5,-248.635 202.5,-254.991"/>
</g>
<!-- b2&#45;&gt;n5 -->
<g id="edge11" class="edge"><title>b2&#45;&gt;n5</title>
<path fill="none" stroke="#fed37f" d="M426.013,-259.007C424.639,-261.779 420.506,-269.67 415.5,-275 403.282,-288.007 387.595,-300.07 373.897,-309.48"/>
<polygon fill="#fed37f" stroke="#fed37f" points="371.609,-306.799 365.238,-315.264 375.498,-312.62 371.609,-306.799"/>
</g>
<!-- ann7 -->
<g id="node14" class="node"><title>ann7</title>
<polygon fill="none" stroke="gray" points="450,-192 335,-192 335,-156 456,-156 456,-186 450,-192"/>
<polyline fill="none" stroke="gray" points="450,-192 450,-186 "/>
<polyline fill="none" stroke="gray" points="456,-186 450,-186 "/>
<g id="a_node14_11"><a xlink:href="http://www.w3.org/ns/prov#role" xlink:title="&lt;TABLE&gt;">
<text text-anchor="start" x="345.5" y="-171" font-family="Times,serif" font-size="10.00">prov:role</text>
</a>
</g>
<g id="a_node14_12"><a xlink:href="http://provenance.elaine.uni-rostock.de/agmodeler" xlink:title="&lt;TABLE&gt;">
<text text-anchor="start" x="391.5" y="-171" font-family="Times,serif" font-size="10.00">ag:modeler</text>
</a>
</g>
</g>
<!-- ann7&#45;&gt;b2 -->
<g id="edge12" class="edge"><title>ann7&#45;&gt;b2</title>
<path fill="none" stroke="gray" stroke-dasharray="5,2" d="M402.074,-192.178C410.321,-213.726 423.681,-248.635 426.114,-254.991"/>
</g>
<!-- b3&#45;&gt;n3 -->
<g id="edge14" class="edge"><title>b3&#45;&gt;n3</title>
<path fill="none" stroke="#8b0000" d="M762.128,-259.058C761.06,-261.961 757.722,-270.157 752.5,-275 733.069,-293.019 706.503,-306.288 684.347,-315.163"/>
<polygon fill="#8b0000" stroke="#8b0000" points="682.917,-311.963 674.837,-318.816 685.427,-318.497 682.917,-311.963"/>
</g>
<!-- ann8 -->
<g id="node16" class="node"><title>ann8</title>
<polygon fill="none" stroke="gray" points="815,-192 704,-192 704,-156 821,-156 821,-186 815,-192"/>
<polyline fill="none" stroke="gray" points="815,-192 815,-186 "/>
<polyline fill="none" stroke="gray" points="821,-186 815,-186 "/>
<g id="a_node16_13"><a xlink:href="http://www.w3.org/ns/prov#role" xlink:title="&lt;TABLE&gt;">
<text text-anchor="start" x="714.5" y="-171" font-family="Times,serif" font-size="10.00">prov:role</text>
</a>
</g>
<g id="a_node16_14"><a xlink:href="http://provenance.elaine.uni-rostock.de/dadataset" xlink:title="&lt;TABLE&gt;">
<text text-anchor="start" x="760.5" y="-171" font-family="Times,serif" font-size="10.00">da:dataset</text>
</a>
</g>
</g>
<!-- ann8&#45;&gt;b3 -->
<g id="edge15" class="edge"><title>ann8&#45;&gt;b3</title>
<path fill="none" stroke="gray" stroke-dasharray="5,2" d="M762.5,-192.178C762.5,-213.726 762.5,-248.635 762.5,-254.991"/>
</g>
</g>
</svg>
