<?xml version="1.0" encoding="UTF-8" standalone="no"?>
<!DOCTYPE svg PUBLIC "-//W3C//DTD SVG 1.1//EN"
 "http://www.w3.org/Graphics/SVG/1.1/DTD/svg11.dtd">
<!-- Generated by graphviz version 2.38.0 (20140413.2041)
 -->
<!-- Title: G Pages: 1 -->
<svg width="777pt" height="356pt"
 viewBox="0.00 0.00 777.00 356.00" xmlns="http://www.w3.org/2000/svg" xmlns:xlink="http://www.w3.org/1999/xlink">
<g id="graph0" class="graph" transform="scale(1 1) rotate(0) translate(4 352)">
<title>G</title>
<polygon fill="white" stroke="none" points="-4,4 -4,-352 773,-352 773,4 -4,4"/>
<!-- n1 -->
<g id="node1" class="node"><title>n1</title>
<g id="a_node1"><a xlink:href="http://provenance.elaine.uni-rostock.de/aguz" xlink:title="ag:uz">
<polygon fill="#fed37f" stroke="black" points="141.41,-335.562 104.5,-348 67.5896,-335.562 67.6241,-315.438 141.376,-315.438 141.41,-335.562"/>
<text text-anchor="middle" x="104.5" y="-326.3" font-family="Times,serif" font-size="14.00">ag:uz</text>
</a>
</g>
</g>
<!-- ann1 -->
<g id="node2" class="node"><title>ann1</title>
<polygon fill="none" stroke="gray" points="153,-275 1.42109e-14,-275 1.42109e-14,-239 159,-239 159,-269 153,-275"/>
<polyline fill="none" stroke="gray" points="153,-275 153,-269 "/>
<polyline fill="none" stroke="gray" points="159,-269 153,-269 "/>
<g id="a_node2_0"><a xlink:href="http://www.w3.org/ns/prov#type" xlink:title="&lt;TABLE&gt;">
<text text-anchor="start" x="10.5" y="-261" font-family="Times,serif" font-size="10.00">prov:type</text>
</a>
</g>
<g id="a_node2_1"><a xlink:href="http://www.w3.org/ns/prov#Person" xlink:title="&lt;TABLE&gt;">
<text text-anchor="start" x="79.5" y="-261" font-family="Times,serif" font-size="10.00">prov:Person</text>
</a>
</g>
<g id="a_node2_2"><a xlink:href="http://xmlns.com/foaf/spec/#givenName" xlink:title="&lt;TABLE&gt;">
<text text-anchor="start" x="10.5" y="-248" font-family="Times,serif" font-size="10.00">foaf:givenName</text>
</a>
</g>
<text text-anchor="start" x="79.5" y="-248" font-family="Times,serif" font-size="10.00">Ulf Zimmermann</text>
</g>
<!-- ann1&#45;&gt;n1 -->
<g id="edge1" class="edge"><title>ann1&#45;&gt;n1</title>
<path fill="none" stroke="gray" stroke-dasharray="5,2" d="M85.5518,-275.187C89.887,-287.499 95.6473,-303.858 99.6742,-315.295"/>
</g>
<!-- n2 -->
<g id="node3" class="node"><title>n2</title>
<g id="a_node3"><a xlink:href="http://provenance.elaine.uni-rostock.de/dactd" xlink:title="da:ctd">
<ellipse fill="#fffc87" stroke="#808080" cx="571.5" cy="-330" rx="32.4942" ry="18"/>
<text text-anchor="middle" x="571.5" y="-326.3" font-family="Times,serif" font-size="14.00">da:ctd</text>
</a>
</g>
</g>
<!-- ann2 -->
<g id="node4" class="node"><title>ann2</title>
<polygon fill="none" stroke="gray" points="650.5,-275 400.5,-275 400.5,-239 656.5,-239 656.5,-269 650.5,-275"/>
<polyline fill="none" stroke="gray" points="650.5,-275 650.5,-269 "/>
<polyline fill="none" stroke="gray" points="656.5,-269 650.5,-269 "/>
<g id="a_node4_3"><a xlink:href="http://www.w3.org/ns/prov#label" xlink:title="&lt;TABLE&gt;">
<text text-anchor="start" x="410.5" y="-261" font-family="Times,serif" font-size="10.00">prov:label</text>
</a>
</g>
<text text-anchor="start" x="460.5" y="-261" font-family="Times,serif" font-size="10.00">CT data of the patient with critical size defect</text>
<g id="a_node4_4"><a xlink:href="http://provenance.elaine.uni-rostock.de/dafileType" xlink:title="&lt;TABLE&gt;">
<text text-anchor="start" x="410.5" y="-248" font-family="Times,serif" font-size="10.00">da:fileType</text>
</a>
</g>
<text text-anchor="start" x="460.5" y="-248" font-family="Times,serif" font-size="10.00">DICOM</text>
</g>
<!-- ann2&#45;&gt;n2 -->
<g id="edge2" class="edge"><title>ann2&#45;&gt;n2</title>
<path fill="none" stroke="gray" stroke-dasharray="5,2" d="M538.909,-275.187C545.769,-286.514 554.704,-301.267 561.483,-312.46"/>
</g>
<!-- n3 -->
<g id="node5" class="node"><title>n3</title>
<g id="a_node5"><a xlink:href="http://provenance.elaine.uni-rostock.de/swmm" xlink:title="sw:mm">
<ellipse fill="#fffc87" stroke="#808080" cx="305.5" cy="-330" rx="37.8943" ry="18"/>
<text text-anchor="middle" x="305.5" y="-326.3" font-family="Times,serif" font-size="14.00">sw:mm</text>
</a>
</g>
</g>
<!-- ann3 -->
<g id="node6" class="node"><title>ann3</title>
<polygon fill="none" stroke="gray" points="354.5,-275 198.5,-275 198.5,-239 360.5,-239 360.5,-269 354.5,-275"/>
<polyline fill="none" stroke="gray" points="354.5,-275 354.5,-269 "/>
<polyline fill="none" stroke="gray" points="360.5,-269 354.5,-269 "/>
<g id="a_node6_5"><a xlink:href="http://www.w3.org/ns/prov#label" xlink:title="&lt;TABLE&gt;">
<text text-anchor="start" x="208.5" y="-254" font-family="Times,serif" font-size="10.00">prov:label</text>
</a>
</g>
<text text-anchor="start" x="253.5" y="-254" font-family="Times,serif" font-size="10.00">Materialise Mimics v19</text>
</g>
<!-- ann3&#45;&gt;n3 -->
<g id="edge3" class="edge"><title>ann3&#45;&gt;n3</title>
<path fill="none" stroke="gray" stroke-dasharray="5,2" d="M285.794,-275.187C289.882,-286.35 295.188,-300.84 299.264,-311.971"/>
</g>
<!-- n4 -->
<g id="node7" class="node"><title>n4</title>
<g id="a_node7"><a xlink:href="http://provenance.elaine.uni-rostock.de/mageneration:a1" xlink:title="ma:generation:a1">
<polygon fill="#9fb1fc" stroke="#0000ff" points="556,-192 445,-192 445,-156 556,-156 556,-192"/>
<text text-anchor="middle" x="500.5" y="-170.3" font-family="Times,serif" font-size="14.00">ma:generation:a1</text>
</a>
</g>
</g>
<!-- b1 -->
<g id="node11" class="node"><title>b1</title>
<ellipse fill="gray" stroke="gray" cx="178.5" cy="-257" rx="1.8" ry="1.8"/>
</g>
<!-- n4&#45;&gt;b1 -->
<g id="edge7" class="edge"><title>n4&#45;&gt;b1</title>
<path fill="none" stroke="#fed37f" d="M444.891,-189.806C441.719,-190.569 438.572,-191.306 435.5,-192 326.928,-216.541 281.829,-176.827 189.5,-239 183.202,-243.241 179.701,-252.428 178.76,-255.195"/>
<text text-anchor="middle" x="286.5" y="-213" font-family="Times,serif" font-size="10.00">wasAssociatedWith</text>
</g>
<!-- b2 -->
<g id="node13" class="node"><title>b2</title>
<ellipse fill="gray" stroke="gray" cx="380.5" cy="-257" rx="1.8" ry="1.8"/>
</g>
<!-- n4&#45;&gt;b2 -->
<g id="edge10" class="edge"><title>n4&#45;&gt;b2</title>
<path fill="none" stroke="#8b0000" d="M494.396,-192.32C490.051,-202.175 483.241,-213.927 473.5,-221 443.308,-242.924 422.162,-217.739 391.5,-239 385.26,-243.327 381.719,-252.455 380.765,-255.201"/>
<text text-anchor="middle" x="494" y="-213" font-family="Times,serif" font-size="10.00" fill="red">used</text>
</g>
<!-- b3 -->
<g id="node15" class="node"><title>b3</title>
<ellipse fill="gray" stroke="gray" cx="676.5" cy="-257" rx="1.8" ry="1.8"/>
</g>
<!-- n4&#45;&gt;b3 -->
<g id="edge13" class="edge"><title>n4&#45;&gt;b3</title>
<path fill="none" stroke="#8b0000" d="M556.221,-187.259C590.511,-196.935 633.809,-213.201 665.5,-239 671.171,-243.616 674.888,-251.954 676.083,-254.918"/>
<text text-anchor="middle" x="647" y="-213" font-family="Times,serif" font-size="10.00" fill="red">used</text>
</g>
<!-- ann4 -->
<g id="node8" class="node"><title>ann4</title>
<polygon fill="none" stroke="gray" points="568.5,-109 394.5,-109 394.5,-73 574.5,-73 574.5,-103 568.5,-109"/>
<polyline fill="none" stroke="gray" points="568.5,-109 568.5,-103 "/>
<polyline fill="none" stroke="gray" points="574.5,-103 568.5,-103 "/>
<g id="a_node8_6"><a xlink:href="http://www.w3.org/ns/prov#label" xlink:title="&lt;TABLE&gt;">
<text text-anchor="start" x="404.5" y="-88" font-family="Times,serif" font-size="10.00">prov:label</text>
</a>
</g>
<text text-anchor="start" x="449.5" y="-88" font-family="Times,serif" font-size="10.00">Register and Segment Slices</text>
</g>
<!-- ann4&#45;&gt;n4 -->
<g id="edge4" class="edge"><title>ann4&#45;&gt;n4</title>
<path fill="none" stroke="gray" stroke-dasharray="5,2" d="M487.893,-109.178C490.608,-122.924 494.398,-142.107 497.112,-155.847"/>
</g>
<!-- n5 -->
<g id="node9" class="node"><title>n5</title>
<g id="a_node9"><a xlink:href="http://provenance.elaine.uni-rostock.de/mor3d" xlink:title="mo:r3d">
<ellipse fill="#fffc87" stroke="#808080" cx="628.5" cy="-91" rx="36.2938" ry="18"/>
<text text-anchor="middle" x="628.5" y="-87.3" font-family="Times,serif" font-size="14.00">mo:r3d</text>
</a>
</g>
</g>
<!-- n5&#45;&gt;n4 -->
<g id="edge6" class="edge"><title>n5&#45;&gt;n4</title>
<path fill="none" stroke="darkgreen" d="M607.076,-105.558C587.85,-117.724 559.243,-135.826 536.507,-150.214"/>
<polygon fill="darkgreen" stroke="darkgreen" points="534.377,-147.42 527.799,-155.725 538.12,-153.335 534.377,-147.42"/>
<text text-anchor="middle" x="607.5" y="-130" font-family="Times,serif" font-size="10.00" fill="darkgreen">wasGeneratedBy</text>
</g>
<!-- ann5 -->
<g id="node10" class="node"><title>ann5</title>
<polygon fill="none" stroke="gray" points="763,-36 488,-36 488,-0 769,-0 769,-30 763,-36"/>
<polyline fill="none" stroke="gray" points="763,-36 763,-30 "/>
<polyline fill="none" stroke="gray" points="769,-30 763,-30 "/>
<g id="a_node10_7"><a xlink:href="http://www.w3.org/ns/prov#label" xlink:title="&lt;TABLE&gt;">
<text text-anchor="start" x="498.5" y="-22" font-family="Times,serif" font-size="10.00">prov:label</text>
</a>
</g>
<text text-anchor="start" x="548.5" y="-22" font-family="Times,serif" font-size="10.00">Raw 3D Model with unwanted geometrical features</text>
<g id="a_node10_8"><a xlink:href="http://provenance.elaine.uni-rostock.de/dafileType" xlink:title="&lt;TABLE&gt;">
<text text-anchor="start" x="498.5" y="-9" font-family="Times,serif" font-size="10.00">da:fileType</text>
</a>
</g>
<text text-anchor="start" x="548.5" y="-9" font-family="Times,serif" font-size="10.00">STL</text>
</g>
<!-- ann5&#45;&gt;n5 -->
<g id="edge5" class="edge"><title>ann5&#45;&gt;n5</title>
<path fill="none" stroke="gray" stroke-dasharray="5,2" d="M628.5,-36.1871C628.5,-47.3501 628.5,-61.8398 628.5,-72.9712"/>
</g>
<!-- b1&#45;&gt;n1 -->
<g id="edge8" class="edge"><title>b1&#45;&gt;n1</title>
<path fill="none" stroke="#fed37f" d="M177.992,-258.988C176.566,-261.713 172.312,-269.494 167.5,-275 156.64,-287.426 142.883,-299.545 130.997,-309.143"/>
<polygon fill="#fed37f" stroke="#fed37f" points="128.805,-306.414 123.126,-315.358 133.143,-311.908 128.805,-306.414"/>
</g>
<!-- ann6 -->
<g id="node12" class="node"><title>ann6</title>
<polygon fill="none" stroke="gray" points="225.5,-192 125.5,-192 125.5,-156 231.5,-156 231.5,-186 225.5,-192"/>
<polyline fill="none" stroke="gray" points="225.5,-192 225.5,-186 "/>
<polyline fill="none" stroke="gray" points="231.5,-186 225.5,-186 "/>
<g id="a_node12_9"><a xlink:href="http://www.w3.org/ns/prov#role" xlink:title="&lt;TABLE&gt;">
<text text-anchor="start" x="135.5" y="-171" font-family="Times,serif" font-size="10.00">prov:role</text>
</a>
</g>
<g id="a_node12_10"><a xlink:href="http://provenance.elaine.uni-rostock.de/agmodeler" xlink:title="&lt;TABLE&gt;">
<text text-anchor="start" x="175.5" y="-171" font-family="Times,serif" font-size="10.00">ag:modeler</text>
</a>
</g>
</g>
<!-- ann6&#45;&gt;b1 -->
<g id="edge9" class="edge"><title>ann6&#45;&gt;b1</title>
<path fill="none" stroke="gray" stroke-dasharray="5,2" d="M178.5,-192.178C178.5,-213.726 178.5,-248.635 178.5,-254.991"/>
</g>
<!-- b2&#45;&gt;n3 -->
<g id="edge11" class="edge"><title>b2&#45;&gt;n3</title>
<path fill="none" stroke="#8b0000" d="M379.995,-258.99C378.574,-261.72 374.333,-269.513 369.5,-275 358.907,-287.027 345.568,-298.709 333.814,-308.114"/>
<polygon fill="#8b0000" stroke="#8b0000" points="331.324,-305.618 325.597,-314.531 335.632,-311.134 331.324,-305.618"/>
</g>
<!-- ann7 -->
<g id="node14" class="node"><title>ann7</title>
<polygon fill="none" stroke="gray" points="420.5,-192 278.5,-192 278.5,-156 426.5,-156 426.5,-186 420.5,-192"/>
<polyline fill="none" stroke="gray" points="420.5,-192 420.5,-186 "/>
<polyline fill="none" stroke="gray" points="426.5,-186 420.5,-186 "/>
<g id="a_node14_11"><a xlink:href="http://www.w3.org/ns/prov#role" xlink:title="&lt;TABLE&gt;">
<text text-anchor="start" x="288.5" y="-171" font-family="Times,serif" font-size="10.00">prov:role</text>
</a>
</g>
<g id="a_node14_12"><a xlink:href="http://provenance.elaine.uni-rostock.de/swsoftwareToModel" xlink:title="&lt;TABLE&gt;">
<text text-anchor="start" x="328.5" y="-171" font-family="Times,serif" font-size="10.00">sw:softwareToModel</text>
</a>
</g>
</g>
<!-- ann7&#45;&gt;b2 -->
<g id="edge12" class="edge"><title>ann7&#45;&gt;b2</title>
<path fill="none" stroke="gray" stroke-dasharray="5,2" d="M357.343,-192.152C359.895,-200.851 363.178,-211.549 366.5,-221 371.361,-234.83 378.434,-251.254 380.126,-255.144"/>
</g>
<!-- b3&#45;&gt;n2 -->
<g id="edge14" class="edge"><title>b3&#45;&gt;n2</title>
<path fill="none" stroke="#8b0000" d="M676.044,-259.038C674.751,-261.89 670.805,-269.968 665.5,-275 648.211,-291.398 625.031,-304.785 606.016,-314.127"/>
<polygon fill="#8b0000" stroke="#8b0000" points="604.315,-311.06 596.783,-318.511 607.318,-317.384 604.315,-311.06"/>
</g>
<!-- ann8 -->
<g id="node16" class="node"><title>ann8</title>
<polygon fill="none" stroke="gray" points="721.5,-192 625.5,-192 625.5,-156 727.5,-156 727.5,-186 721.5,-192"/>
<polyline fill="none" stroke="gray" points="721.5,-192 721.5,-186 "/>
<polyline fill="none" stroke="gray" points="727.5,-186 721.5,-186 "/>
<g id="a_node16_13"><a xlink:href="http://www.w3.org/ns/prov#role" xlink:title="&lt;TABLE&gt;">
<text text-anchor="start" x="635.5" y="-171" font-family="Times,serif" font-size="10.00">prov:role</text>
</a>
</g>
<g id="a_node16_14"><a xlink:href="http://provenance.elaine.uni-rostock.de/dadataset" xlink:title="&lt;TABLE&gt;">
<text text-anchor="start" x="675.5" y="-171" font-family="Times,serif" font-size="10.00">da:dataset</text>
</a>
</g>
</g>
<!-- ann8&#45;&gt;b3 -->
<g id="edge15" class="edge"><title>ann8&#45;&gt;b3</title>
<path fill="none" stroke="gray" stroke-dasharray="5,2" d="M676.5,-192.178C676.5,-213.726 676.5,-248.635 676.5,-254.991"/>
</g>
</g>
</svg>
