<?xml version="1.0" encoding="UTF-8" standalone="no"?>
<!DOCTYPE svg PUBLIC "-//W3C//DTD SVG 1.1//EN"
 "http://www.w3.org/Graphics/SVG/1.1/DTD/svg11.dtd">
<!-- Generated by graphviz version 2.38.0 (20140413.2041)
 -->
<!-- Title: G Pages: 1 -->
<svg width="1159pt" height="382pt"
 viewBox="0.00 0.00 1158.50 382.00" xmlns="http://www.w3.org/2000/svg" xmlns:xlink="http://www.w3.org/1999/xlink">
<g id="graph0" class="graph" transform="scale(1 1) rotate(0) translate(4 378)">
<title>G</title>
<polygon fill="white" stroke="none" points="-4,4 -4,-378 1154.5,-378 1154.5,4 -4,4"/>
<!-- n1 -->
<g id="node1" class="node"><title>n1</title>
<g id="a_node1"><a xlink:href="http://provenance.elaine.uni-rostock.de/aghr" xlink:title="ag:hr">
<polygon fill="#fed37f" stroke="black" points="162.265,-361.562 119,-374 75.7354,-361.562 75.7758,-341.438 162.224,-341.438 162.265,-361.562"/>
<text text-anchor="middle" x="119" y="-352.3" font-family="Times,serif" font-size="14.00">ag:hr</text>
</a>
</g>
</g>
<!-- ann1 -->
<g id="node2" class="node"><title>ann1</title>
<polygon fill="none" stroke="gray" points="176,-294.5 0,-294.5 0,-258.5 182,-258.5 182,-288.5 176,-294.5"/>
<polyline fill="none" stroke="gray" points="176,-294.5 176,-288.5 "/>
<polyline fill="none" stroke="gray" points="182,-288.5 176,-288.5 "/>
<g id="a_node2_0"><a xlink:href="http://www.w3.org/ns/prov#type" xlink:title="&lt;TABLE&gt;">
<text text-anchor="start" x="10" y="-280.5" font-family="Times,serif" font-size="10.00">prov:type</text>
</a>
</g>
<g id="a_node2_1"><a xlink:href="http://www.w3.org/ns/prov#Person" xlink:title="&lt;TABLE&gt;">
<text text-anchor="start" x="90" y="-280.5" font-family="Times,serif" font-size="10.00">prov:Person</text>
</a>
</g>
<g id="a_node2_2"><a xlink:href="http://xmlns.com/foaf/spec/#givenName" xlink:title="&lt;TABLE&gt;">
<text text-anchor="start" x="10" y="-267.5" font-family="Times,serif" font-size="10.00">foaf:givenName</text>
</a>
</g>
<text text-anchor="start" x="90" y="-267.5" font-family="Times,serif" font-size="10.00">Hendrikje Raben</text>
</g>
<!-- ann1&#45;&gt;n1 -->
<g id="edge1" class="edge"><title>ann1&#45;&gt;n1</title>
<path fill="none" stroke="gray" stroke-dasharray="5,2" d="M97.2141,-294.7C102.241,-308.613 109.231,-327.961 113.925,-340.954"/>
</g>
<!-- n2 -->
<g id="node3" class="node"><title>n2</title>
<g id="a_node3"><a xlink:href="http://provenance.elaine.uni-rostock.de/mopvcm" xlink:title="mo:pvcm">
<ellipse fill="#fffc87" stroke="#808080" cx="344" cy="-104" rx="53.0913" ry="18"/>
<text text-anchor="middle" x="344" y="-100.3" font-family="Times,serif" font-size="14.00">mo:pvcm</text>
</a>
</g>
</g>
<!-- n4 -->
<g id="node7" class="node"><title>n4</title>
<g id="a_node7"><a xlink:href="http://provenance.elaine.uni-rostock.de/maparametrisation:a2" xlink:title="ma:parametrisation:a2">
<polygon fill="#9fb1fc" stroke="#0000ff" points="580.5,-205 401.5,-205 401.5,-169 580.5,-169 580.5,-205"/>
<text text-anchor="middle" x="491" y="-183.3" font-family="Times,serif" font-size="14.00">ma:parametrisation:a2</text>
</a>
</g>
</g>
<!-- n2&#45;&gt;n4 -->
<g id="edge7" class="edge"><title>n2&#45;&gt;n4</title>
<path fill="none" stroke="darkgreen" d="M370.519,-119.747C386.803,-128.79 408.094,-140.591 427,-151 434.738,-155.26 443.01,-159.797 450.952,-164.144"/>
<polygon fill="darkgreen" stroke="darkgreen" points="449.278,-167.217 459.731,-168.945 452.637,-161.076 449.278,-167.217"/>
<text text-anchor="middle" x="468" y="-143" font-family="Times,serif" font-size="10.00" fill="darkgreen">wasGeneratedBy</text>
</g>
<!-- ann2 -->
<g id="node4" class="node"><title>ann2</title>
<polygon fill="none" stroke="gray" points="477.5,-49 204.5,-49 204.5,-3.55271e-15 483.5,-3.55271e-15 483.5,-43 477.5,-49"/>
<polyline fill="none" stroke="gray" points="477.5,-49 477.5,-43 "/>
<polyline fill="none" stroke="gray" points="483.5,-43 477.5,-43 "/>
<g id="a_node4_3"><a xlink:href="http://www.w3.org/ns/prov#label" xlink:title="&lt;TABLE&gt;">
<text text-anchor="start" x="215" y="-34.5" font-family="Times,serif" font-size="10.00">prov:label</text>
</a>
</g>
<text text-anchor="start" x="284" y="-34.5" font-family="Times,serif" font-size="10.00">Physical VCM</text>
<g id="a_node4_4"><a xlink:href="http://provenance.elaine.uni-rostock.de/dafileType" xlink:title="&lt;TABLE&gt;">
<text text-anchor="start" x="215" y="-21.5" font-family="Times,serif" font-size="10.00">da:fileType</text>
</a>
</g>
<text text-anchor="start" x="284" y="-21.5" font-family="Times,serif" font-size="10.00">mph</text>
<g id="a_node4_5"><a xlink:href="http://www.w3.org/2000/01/rdf-schema#comment" xlink:title="&lt;TABLE&gt;">
<text text-anchor="start" x="215" y="-8.5" font-family="Times,serif" font-size="10.00">rdfs:comment</text>
</a>
</g>
<text text-anchor="start" x="284" y="-8.5" font-family="Times,serif" font-size="10.00">This is part of the COMSOL project file</text>
</g>
<!-- ann2&#45;&gt;n2 -->
<g id="edge2" class="edge"><title>ann2&#45;&gt;n2</title>
<path fill="none" stroke="gray" stroke-dasharray="5,2" d="M344,-49.1737C344,-60.9254 344,-74.869 344,-85.6196"/>
</g>
<!-- n3 -->
<g id="node5" class="node"><title>n3</title>
<g id="a_node5"><a xlink:href="http://provenance.elaine.uni-rostock.de/datissue_par" xlink:title="da:tissue_par">
<ellipse fill="#fffc87" stroke="#808080" cx="722" cy="-356" rx="73.387" ry="18"/>
<text text-anchor="middle" x="722" y="-352.3" font-family="Times,serif" font-size="14.00">da:tissue_par</text>
</a>
</g>
</g>
<!-- ann3 -->
<g id="node6" class="node"><title>ann3</title>
<polygon fill="none" stroke="gray" points="894.5,-294.5 675.5,-294.5 675.5,-258.5 900.5,-258.5 900.5,-288.5 894.5,-294.5"/>
<polyline fill="none" stroke="gray" points="894.5,-294.5 894.5,-288.5 "/>
<polyline fill="none" stroke="gray" points="900.5,-288.5 894.5,-288.5 "/>
<g id="a_node6_6"><a xlink:href="http://www.w3.org/ns/prov#label" xlink:title="&lt;TABLE&gt;">
<text text-anchor="start" x="686" y="-273.5" font-family="Times,serif" font-size="10.00">prov:label</text>
</a>
</g>
<text text-anchor="start" x="737" y="-273.5" font-family="Times,serif" font-size="10.00">Parameters for tissue properties</text>
</g>
<!-- ann3&#45;&gt;n3 -->
<g id="edge3" class="edge"><title>ann3&#45;&gt;n3</title>
<path fill="none" stroke="gray" stroke-dasharray="5,2" d="M773.352,-294.7C762.339,-307.632 747.327,-325.26 736.38,-338.115"/>
</g>
<!-- b1 -->
<g id="node13" class="node"><title>b1</title>
<ellipse fill="gray" stroke="gray" cx="326" cy="-276.5" rx="1.8" ry="1.8"/>
</g>
<!-- n4&#45;&gt;b1 -->
<g id="edge8" class="edge"><title>n4&#45;&gt;b1</title>
<path fill="none" stroke="#8b0000" d="M420.707,-205.085C391.966,-214.931 360.114,-229.88 337,-252 329.97,-258.728 326.972,-270.832 326.207,-274.451"/>
<text text-anchor="middle" x="389" y="-226" font-family="Times,serif" font-size="10.00" fill="red">used</text>
</g>
<!-- b2 -->
<g id="node15" class="node"><title>b2</title>
<ellipse fill="gray" stroke="gray" cx="656" cy="-276.5" rx="1.8" ry="1.8"/>
</g>
<!-- n4&#45;&gt;b2 -->
<g id="edge11" class="edge"><title>n4&#45;&gt;b2</title>
<path fill="none" stroke="#8b0000" d="M561.293,-205.085C590.034,-214.931 621.886,-229.88 645,-252 652.03,-258.728 655.028,-270.832 655.793,-274.451"/>
<text text-anchor="middle" x="631" y="-226" font-family="Times,serif" font-size="10.00" fill="red">used</text>
</g>
<!-- b3 -->
<g id="node17" class="node"><title>b3</title>
<ellipse fill="gray" stroke="gray" cx="202" cy="-276.5" rx="1.8" ry="1.8"/>
</g>
<!-- n4&#45;&gt;b3 -->
<g id="edge14" class="edge"><title>n4&#45;&gt;b3</title>
<path fill="none" stroke="#fed37f" d="M401.441,-203.5C398.256,-204.012 395.101,-204.514 392,-205 335.679,-213.825 317.106,-199.87 265,-223 234.81,-236.401 207.598,-268.63 202.761,-274.556"/>
<text text-anchor="middle" x="311.5" y="-226" font-family="Times,serif" font-size="10.00">wasAssociatedWith</text>
</g>
<!-- b4 -->
<g id="node19" class="node"><title>b4</title>
<ellipse fill="gray" stroke="gray" cx="920" cy="-276.5" rx="1.8" ry="1.8"/>
</g>
<!-- n4&#45;&gt;b4 -->
<g id="edge17" class="edge"><title>n4&#45;&gt;b4</title>
<path fill="none" stroke="#8b0000" d="M580.562,-203.479C583.747,-203.998 586.9,-204.506 590,-205 660.979,-216.305 853.095,-208.095 910,-252 917.583,-257.85 919.489,-270.558 919.899,-274.387"/>
<text text-anchor="middle" x="878" y="-226" font-family="Times,serif" font-size="10.00" fill="red">used</text>
</g>
<!-- ann4 -->
<g id="node8" class="node"><title>ann4</title>
<polygon fill="none" stroke="gray" points="661,-122 415,-122 415,-86 667,-86 667,-116 661,-122"/>
<polyline fill="none" stroke="gray" points="661,-122 661,-116 "/>
<polyline fill="none" stroke="gray" points="667,-116 661,-116 "/>
<g id="a_node8_7"><a xlink:href="http://www.w3.org/ns/prov#label" xlink:title="&lt;TABLE&gt;">
<text text-anchor="start" x="425" y="-101" font-family="Times,serif" font-size="10.00">prov:label</text>
</a>
</g>
<text text-anchor="start" x="476" y="-101" font-family="Times,serif" font-size="10.00">Assigning Dielectric Tissue Properties</text>
</g>
<!-- ann4&#45;&gt;n4 -->
<g id="edge4" class="edge"><title>ann4&#45;&gt;n4</title>
<path fill="none" stroke="gray" stroke-dasharray="5,2" d="M530.396,-122.178C521.911,-135.924 510.07,-155.107 501.588,-168.847"/>
</g>
<!-- n5 -->
<g id="node9" class="node"><title>n5</title>
<g id="a_node9"><a xlink:href="http://provenance.elaine.uni-rostock.de/swcs" xlink:title="sw:cs">
<ellipse fill="#fffc87" stroke="#808080" cx="1013" cy="-356" rx="36.2938" ry="18"/>
<text text-anchor="middle" x="1013" y="-352.3" font-family="Times,serif" font-size="14.00">sw:cs</text>
</a>
</g>
</g>
<!-- ann5 -->
<g id="node10" class="node"><title>ann5</title>
<polygon fill="none" stroke="gray" points="1144.5,-294.5 939.5,-294.5 939.5,-258.5 1150.5,-258.5 1150.5,-288.5 1144.5,-294.5"/>
<polyline fill="none" stroke="gray" points="1144.5,-294.5 1144.5,-288.5 "/>
<polyline fill="none" stroke="gray" points="1150.5,-288.5 1144.5,-288.5 "/>
<g id="a_node10_8"><a xlink:href="http://www.w3.org/ns/prov#label" xlink:title="&lt;TABLE&gt;">
<text text-anchor="start" x="950" y="-273.5" font-family="Times,serif" font-size="10.00">prov:label</text>
</a>
</g>
<text text-anchor="start" x="1001" y="-273.5" font-family="Times,serif" font-size="10.00">COMSOL Multiphysics v5.2a</text>
</g>
<!-- ann5&#45;&gt;n5 -->
<g id="edge5" class="edge"><title>ann5&#45;&gt;n5</title>
<path fill="none" stroke="gray" stroke-dasharray="5,2" d="M1037.9,-294.7C1032.56,-307.632 1025.28,-325.26 1019.97,-338.115"/>
</g>
<!-- n6 -->
<g id="node11" class="node"><title>n6</title>
<g id="a_node11"><a xlink:href="http://provenance.elaine.uni-rostock.de/mogeom" xlink:title="mo:geom">
<ellipse fill="#fffc87" stroke="#808080" cx="444" cy="-356" rx="53.0913" ry="18"/>
<text text-anchor="middle" x="444" y="-352.3" font-family="Times,serif" font-size="14.00">mo:geom</text>
</a>
</g>
</g>
<!-- ann6 -->
<g id="node12" class="node"><title>ann6</title>
<polygon fill="none" stroke="gray" points="630,-301 346,-301 346,-252 636,-252 636,-295 630,-301"/>
<polyline fill="none" stroke="gray" points="630,-301 630,-295 "/>
<polyline fill="none" stroke="gray" points="636,-295 630,-295 "/>
<g id="a_node12_9"><a xlink:href="http://www.w3.org/ns/prov#label" xlink:title="&lt;TABLE&gt;">
<text text-anchor="start" x="356" y="-286.5" font-family="Times,serif" font-size="10.00">prov:label</text>
</a>
</g>
<text text-anchor="start" x="425" y="-286.5" font-family="Times,serif" font-size="10.00">Geometrical 3D Model of all Components</text>
<g id="a_node12_10"><a xlink:href="http://provenance.elaine.uni-rostock.de/dafileType" xlink:title="&lt;TABLE&gt;">
<text text-anchor="start" x="356" y="-273.5" font-family="Times,serif" font-size="10.00">da:fileType</text>
</a>
</g>
<text text-anchor="start" x="425" y="-273.5" font-family="Times,serif" font-size="10.00">mph</text>
<g id="a_node12_11"><a xlink:href="http://www.w3.org/2000/01/rdf-schema#comment" xlink:title="&lt;TABLE&gt;">
<text text-anchor="start" x="356" y="-260.5" font-family="Times,serif" font-size="10.00">rdfs:comment</text>
</a>
</g>
<text text-anchor="start" x="425" y="-260.5" font-family="Times,serif" font-size="10.00">This is part of the COMSOL project file</text>
</g>
<!-- ann6&#45;&gt;n6 -->
<g id="edge6" class="edge"><title>ann6&#45;&gt;n6</title>
<path fill="none" stroke="gray" stroke-dasharray="5,2" d="M476.643,-301.174C469.408,-313.104 460.804,-327.292 454.245,-338.106"/>
</g>
<!-- b1&#45;&gt;n6 -->
<g id="edge9" class="edge"><title>b1&#45;&gt;n6</title>
<path fill="none" stroke="#8b0000" d="M326.225,-278.531C327.051,-282.088 330.222,-294.019 337,-301 353.517,-318.013 376.53,-330.579 396.984,-339.287"/>
<polygon fill="#8b0000" stroke="#8b0000" points="395.891,-342.621 406.473,-343.136 398.522,-336.134 395.891,-342.621"/>
</g>
<!-- ann7 -->
<g id="node14" class="node"><title>ann7</title>
<polygon fill="none" stroke="gray" points="377,-205 269,-205 269,-169 383,-169 383,-199 377,-205"/>
<polyline fill="none" stroke="gray" points="377,-205 377,-199 "/>
<polyline fill="none" stroke="gray" points="383,-199 377,-199 "/>
<g id="a_node14_12"><a xlink:href="http://www.w3.org/ns/prov#role" xlink:title="&lt;TABLE&gt;">
<text text-anchor="start" x="279" y="-184" font-family="Times,serif" font-size="10.00">prov:role</text>
</a>
</g>
<g id="a_node14_13"><a xlink:href="http://provenance.elaine.uni-rostock.de/momodel" xlink:title="&lt;TABLE&gt;">
<text text-anchor="start" x="325" y="-184" font-family="Times,serif" font-size="10.00">mo:model</text>
</a>
</g>
</g>
<!-- ann7&#45;&gt;b1 -->
<g id="edge10" class="edge"><title>ann7&#45;&gt;b1</title>
<path fill="none" stroke="gray" stroke-dasharray="5,2" d="M326,-205.287C326,-228.397 326,-267.285 326,-274.374"/>
</g>
<!-- b2&#45;&gt;n3 -->
<g id="edge12" class="edge"><title>b2&#45;&gt;n3</title>
<path fill="none" stroke="#8b0000" d="M656.31,-278.46C657.412,-281.789 661.377,-293.059 667,-301 674.811,-312.03 685.019,-322.762 694.518,-331.714"/>
<polygon fill="#8b0000" stroke="#8b0000" points="692.182,-334.32 701.924,-338.484 696.904,-329.154 692.182,-334.32"/>
</g>
<!-- ann8 -->
<g id="node16" class="node"><title>ann8</title>
<polygon fill="none" stroke="gray" points="725,-205 599,-205 599,-169 731,-169 731,-199 725,-205"/>
<polyline fill="none" stroke="gray" points="725,-205 725,-199 "/>
<polyline fill="none" stroke="gray" points="731,-199 725,-199 "/>
<g id="a_node16_14"><a xlink:href="http://www.w3.org/ns/prov#role" xlink:title="&lt;TABLE&gt;">
<text text-anchor="start" x="609" y="-184" font-family="Times,serif" font-size="10.00">prov:role</text>
</a>
</g>
<g id="a_node16_15"><a xlink:href="http://provenance.elaine.uni-rostock.de/daparameter" xlink:title="&lt;TABLE&gt;">
<text text-anchor="start" x="655" y="-184" font-family="Times,serif" font-size="10.00">da:parameter</text>
</a>
</g>
</g>
<!-- ann8&#45;&gt;b2 -->
<g id="edge13" class="edge"><title>ann8&#45;&gt;b2</title>
<path fill="none" stroke="gray" stroke-dasharray="5,2" d="M663.222,-205.287C660.845,-228.397 656.845,-267.285 656.116,-274.374"/>
</g>
<!-- b3&#45;&gt;n1 -->
<g id="edge15" class="edge"><title>b3&#45;&gt;n1</title>
<path fill="none" stroke="#fed37f" d="M201.728,-278.489C200.749,-281.911 197.137,-293.45 191,-301 180.005,-314.526 164.919,-326.519 151.396,-335.745"/>
<polygon fill="#fed37f" stroke="#fed37f" points="149.229,-332.981 142.794,-341.397 153.073,-338.831 149.229,-332.981"/>
</g>
<!-- ann9 -->
<g id="node18" class="node"><title>ann9</title>
<polygon fill="none" stroke="gray" points="239.5,-205 124.5,-205 124.5,-169 245.5,-169 245.5,-199 239.5,-205"/>
<polyline fill="none" stroke="gray" points="239.5,-205 239.5,-199 "/>
<polyline fill="none" stroke="gray" points="245.5,-199 239.5,-199 "/>
<g id="a_node18_16"><a xlink:href="http://www.w3.org/ns/prov#role" xlink:title="&lt;TABLE&gt;">
<text text-anchor="start" x="135" y="-184" font-family="Times,serif" font-size="10.00">prov:role</text>
</a>
</g>
<g id="a_node18_17"><a xlink:href="http://provenance.elaine.uni-rostock.de/agmodeler" xlink:title="&lt;TABLE&gt;">
<text text-anchor="start" x="181" y="-184" font-family="Times,serif" font-size="10.00">ag:modeler</text>
</a>
</g>
</g>
<!-- ann9&#45;&gt;b3 -->
<g id="edge16" class="edge"><title>ann9&#45;&gt;b3</title>
<path fill="none" stroke="gray" stroke-dasharray="5,2" d="M188.359,-205.287C192.849,-228.397 200.404,-267.285 201.781,-274.374"/>
</g>
<!-- b4&#45;&gt;n5 -->
<g id="edge18" class="edge"><title>b4&#45;&gt;n5</title>
<path fill="none" stroke="#8b0000" d="M920.256,-278.503C921.18,-281.97 924.635,-293.641 931,-301 944.05,-316.088 962.306,-328.666 978.28,-337.876"/>
<polygon fill="#8b0000" stroke="#8b0000" points="976.921,-341.124 987.365,-342.903 980.31,-334.999 976.921,-341.124"/>
</g>
<!-- ann10 -->
<g id="node20" class="node"><title>ann10</title>
<polygon fill="none" stroke="gray" points="1011,-205 823,-205 823,-169 1017,-169 1017,-199 1011,-205"/>
<polyline fill="none" stroke="gray" points="1011,-205 1011,-199 "/>
<polyline fill="none" stroke="gray" points="1017,-199 1011,-199 "/>
<g id="a_node20_18"><a xlink:href="http://www.w3.org/ns/prov#role" xlink:title="&lt;TABLE&gt;">
<text text-anchor="start" x="833" y="-184" font-family="Times,serif" font-size="10.00">prov:role</text>
</a>
</g>
<g id="a_node20_19"><a xlink:href="http://provenance.elaine.uni-rostock.de/swsoftwareToParametrise" xlink:title="&lt;TABLE&gt;">
<text text-anchor="start" x="879" y="-184" font-family="Times,serif" font-size="10.00">sw:softwareToParametrise</text>
</a>
</g>
</g>
<!-- ann10&#45;&gt;b4 -->
<g id="edge19" class="edge"><title>ann10&#45;&gt;b4</title>
<path fill="none" stroke="gray" stroke-dasharray="5,2" d="M920,-205.287C920,-228.397 920,-267.285 920,-274.374"/>
</g>
</g>
</svg>
