<?xml version="1.0" encoding="UTF-8" standalone="no"?>
<!DOCTYPE svg PUBLIC "-//W3C//DTD SVG 1.1//EN"
 "http://www.w3.org/Graphics/SVG/1.1/DTD/svg11.dtd">
<!-- Generated by graphviz version 2.38.0 (20140413.2041)
 -->
<!-- Title: G Pages: 1 -->
<svg width="1053pt" height="382pt"
 viewBox="0.00 0.00 1052.50 382.00" xmlns="http://www.w3.org/2000/svg" xmlns:xlink="http://www.w3.org/1999/xlink">
<g id="graph0" class="graph" transform="scale(1 1) rotate(0) translate(4 378)">
<title>G</title>
<polygon fill="white" stroke="none" points="-4,4 -4,-378 1048.5,-378 1048.5,4 -4,4"/>
<!-- n1 -->
<g id="node1" class="node"><title>n1</title>
<g id="a_node1"><a xlink:href="http://provenance.elaine.uni-rostock.de/datissue_par" xlink:title="da:tissue_par">
<ellipse fill="#fffc87" stroke="#808080" cx="124.5" cy="-356" rx="57.3905" ry="18"/>
<text text-anchor="middle" x="124.5" y="-352.3" font-family="Times,serif" font-size="14.00">da:tissue_par</text>
</a>
</g>
</g>
<!-- ann1 -->
<g id="node2" class="node"><title>ann1</title>
<polygon fill="none" stroke="gray" points="185,-294.5 0,-294.5 0,-258.5 191,-258.5 191,-288.5 185,-294.5"/>
<polyline fill="none" stroke="gray" points="185,-294.5 185,-288.5 "/>
<polyline fill="none" stroke="gray" points="191,-288.5 185,-288.5 "/>
<g id="a_node2_0"><a xlink:href="http://www.w3.org/ns/prov#label" xlink:title="&lt;TABLE&gt;">
<text text-anchor="start" x="10.5" y="-273.5" font-family="Times,serif" font-size="10.00">prov:label</text>
</a>
</g>
<text text-anchor="start" x="55.5" y="-273.5" font-family="Times,serif" font-size="10.00">Parameters for tissue properties</text>
</g>
<!-- ann1&#45;&gt;n1 -->
<g id="edge1" class="edge"><title>ann1&#45;&gt;n1</title>
<path fill="none" stroke="gray" stroke-dasharray="5,2" d="M101.936,-294.7C106.742,-307.543 113.28,-325.017 118.082,-337.848"/>
</g>
<!-- n2 -->
<g id="node3" class="node"><title>n2</title>
<g id="a_node3"><a xlink:href="http://provenance.elaine.uni-rostock.de/swcs" xlink:title="sw:cs">
<ellipse fill="#fffc87" stroke="#808080" cx="595.5" cy="-356" rx="30.5947" ry="18"/>
<text text-anchor="middle" x="595.5" y="-352.3" font-family="Times,serif" font-size="14.00">sw:cs</text>
</a>
</g>
</g>
<!-- ann2 -->
<g id="node4" class="node"><title>ann2</title>
<polygon fill="none" stroke="gray" points="741,-294.5 558,-294.5 558,-258.5 747,-258.5 747,-288.5 741,-294.5"/>
<polyline fill="none" stroke="gray" points="741,-294.5 741,-288.5 "/>
<polyline fill="none" stroke="gray" points="747,-288.5 741,-288.5 "/>
<g id="a_node4_1"><a xlink:href="http://www.w3.org/ns/prov#label" xlink:title="&lt;TABLE&gt;">
<text text-anchor="start" x="568.5" y="-273.5" font-family="Times,serif" font-size="10.00">prov:label</text>
</a>
</g>
<text text-anchor="start" x="613.5" y="-273.5" font-family="Times,serif" font-size="10.00">COMSOL Multiphysics v5.2a</text>
</g>
<!-- ann2&#45;&gt;n2 -->
<g id="edge2" class="edge"><title>ann2&#45;&gt;n2</title>
<path fill="none" stroke="gray" stroke-dasharray="5,2" d="M639.85,-294.7C630.076,-307.989 616.656,-326.236 607.144,-339.168"/>
</g>
<!-- n3 -->
<g id="node5" class="node"><title>n3</title>
<g id="a_node5"><a xlink:href="http://provenance.elaine.uni-rostock.de/maparameterisation:a2" xlink:title="ma:parameterisation:a2">
<polygon fill="#9fb1fc" stroke="#0000ff" points="523,-205 378,-205 378,-169 523,-169 523,-205"/>
<text text-anchor="middle" x="450.5" y="-183.3" font-family="Times,serif" font-size="14.00">ma:parameterisation:a2</text>
</a>
</g>
</g>
<!-- b1 -->
<g id="node13" class="node"><title>b1</title>
<ellipse fill="gray" stroke="gray" cx="324.5" cy="-276.5" rx="1.8" ry="1.8"/>
</g>
<!-- n3&#45;&gt;b1 -->
<g id="edge8" class="edge"><title>n3&#45;&gt;b1</title>
<path fill="none" stroke="#fed37f" d="M405.433,-205.099C382.183,-215.74 354.742,-231.36 335.5,-252 328.865,-259.117 325.595,-270.954 324.736,-274.479"/>
<text text-anchor="middle" x="409.5" y="-226" font-family="Times,serif" font-size="10.00">wasAssociatedWith</text>
</g>
<!-- b2 -->
<g id="node15" class="node"><title>b2</title>
<ellipse fill="gray" stroke="gray" cx="210.5" cy="-276.5" rx="1.8" ry="1.8"/>
</g>
<!-- n3&#45;&gt;b2 -->
<g id="edge11" class="edge"><title>n3&#45;&gt;b2</title>
<path fill="none" stroke="#8b0000" d="M388.745,-205.057C370.792,-210.396 351.245,-216.582 333.5,-223 281.972,-241.637 220.917,-270.529 211.691,-274.93"/>
<text text-anchor="middle" x="343" y="-226" font-family="Times,serif" font-size="10.00" fill="red">used</text>
</g>
<!-- b3 -->
<g id="node17" class="node"><title>b3</title>
<ellipse fill="gray" stroke="gray" cx="538.5" cy="-276.5" rx="1.8" ry="1.8"/>
</g>
<!-- n3&#45;&gt;b3 -->
<g id="edge14" class="edge"><title>n3&#45;&gt;b3</title>
<path fill="none" stroke="#8b0000" d="M467.886,-205.287C491.528,-228.795 531.592,-268.631 537.707,-274.712"/>
<text text-anchor="middle" x="504" y="-226" font-family="Times,serif" font-size="10.00" fill="red">used</text>
</g>
<!-- b4 -->
<g id="node19" class="node"><title>b4</title>
<ellipse fill="gray" stroke="gray" cx="774.5" cy="-276.5" rx="1.8" ry="1.8"/>
</g>
<!-- n3&#45;&gt;b4 -->
<g id="edge17" class="edge"><title>n3&#45;&gt;b4</title>
<path fill="none" stroke="#8b0000" d="M523.216,-203.129C613.516,-221.928 755.873,-251.605 756.5,-252 765.895,-257.912 772.25,-270.578 774.007,-274.391"/>
<text text-anchor="middle" x="675" y="-226" font-family="Times,serif" font-size="10.00" fill="red">used</text>
</g>
<!-- ann3 -->
<g id="node6" class="node"><title>ann3</title>
<polygon fill="none" stroke="gray" points="539.5,-122 323.5,-122 323.5,-86 545.5,-86 545.5,-116 539.5,-122"/>
<polyline fill="none" stroke="gray" points="539.5,-122 539.5,-116 "/>
<polyline fill="none" stroke="gray" points="545.5,-116 539.5,-116 "/>
<g id="a_node6_2"><a xlink:href="http://www.w3.org/ns/prov#label" xlink:title="&lt;TABLE&gt;">
<text text-anchor="start" x="333.5" y="-101" font-family="Times,serif" font-size="10.00">prov:label</text>
</a>
</g>
<text text-anchor="start" x="378.5" y="-101" font-family="Times,serif" font-size="10.00">Assigning Dielectric Tissue Properties</text>
</g>
<!-- ann3&#45;&gt;n3 -->
<g id="edge3" class="edge"><title>ann3&#45;&gt;n3</title>
<path fill="none" stroke="gray" stroke-dasharray="5,2" d="M437.893,-122.178C440.608,-135.924 444.398,-155.107 447.112,-168.847"/>
</g>
<!-- n4 -->
<g id="node7" class="node"><title>n4</title>
<g id="a_node7"><a xlink:href="http://provenance.elaine.uni-rostock.de/aghr" xlink:title="ag:hr">
<polygon fill="#fed37f" stroke="black" points="427.697,-361.562 392.5,-374 357.303,-361.562 357.335,-341.438 427.665,-341.438 427.697,-361.562"/>
<text text-anchor="middle" x="392.5" y="-352.3" font-family="Times,serif" font-size="14.00">ag:hr</text>
</a>
</g>
</g>
<!-- ann4 -->
<g id="node8" class="node"><title>ann4</title>
<polygon fill="none" stroke="gray" points="497,-294.5 344,-294.5 344,-258.5 503,-258.5 503,-288.5 497,-294.5"/>
<polyline fill="none" stroke="gray" points="497,-294.5 497,-288.5 "/>
<polyline fill="none" stroke="gray" points="503,-288.5 497,-288.5 "/>
<g id="a_node8_3"><a xlink:href="http://www.w3.org/ns/prov#type" xlink:title="&lt;TABLE&gt;">
<text text-anchor="start" x="354.5" y="-280.5" font-family="Times,serif" font-size="10.00">prov:type</text>
</a>
</g>
<g id="a_node8_4"><a xlink:href="http://www.w3.org/ns/prov#Person" xlink:title="&lt;TABLE&gt;">
<text text-anchor="start" x="423.5" y="-280.5" font-family="Times,serif" font-size="10.00">prov:Person</text>
</a>
</g>
<g id="a_node8_5"><a xlink:href="http://xmlns.com/foaf/spec/#givenName" xlink:title="&lt;TABLE&gt;">
<text text-anchor="start" x="354.5" y="-267.5" font-family="Times,serif" font-size="10.00">foaf:givenName</text>
</a>
</g>
<text text-anchor="start" x="423.5" y="-267.5" font-family="Times,serif" font-size="10.00">Hendrikje Raben</text>
</g>
<!-- ann4&#45;&gt;n4 -->
<g id="edge4" class="edge"><title>ann4&#45;&gt;n4</title>
<path fill="none" stroke="gray" stroke-dasharray="5,2" d="M416.62,-294.7C411.055,-308.613 403.315,-327.961 398.118,-340.954"/>
</g>
<!-- n5 -->
<g id="node9" class="node"><title>n5</title>
<g id="a_node9"><a xlink:href="http://provenance.elaine.uni-rostock.de/mopvcm" xlink:title="mo:pvcm">
<ellipse fill="#fffc87" stroke="#808080" cx="608.5" cy="-104" rx="44.6926" ry="18"/>
<text text-anchor="middle" x="608.5" y="-100.3" font-family="Times,serif" font-size="14.00">mo:pvcm</text>
</a>
</g>
</g>
<!-- n5&#45;&gt;n3 -->
<g id="edge7" class="edge"><title>n5&#45;&gt;n3</title>
<path fill="none" stroke="darkgreen" d="M582.054,-118.558C557.718,-131.034 521.205,-149.752 492.816,-164.306"/>
<polygon fill="darkgreen" stroke="darkgreen" points="491.212,-161.195 483.91,-168.872 494.406,-167.424 491.212,-161.195"/>
<text text-anchor="middle" x="573.5" y="-143" font-family="Times,serif" font-size="10.00" fill="darkgreen">wasGeneratedBy</text>
</g>
<!-- ann5 -->
<g id="node10" class="node"><title>ann5</title>
<polygon fill="none" stroke="gray" points="722.5,-49 488.5,-49 488.5,-3.55271e-15 728.5,-3.55271e-15 728.5,-43 722.5,-49"/>
<polyline fill="none" stroke="gray" points="722.5,-49 722.5,-43 "/>
<polyline fill="none" stroke="gray" points="728.5,-43 722.5,-43 "/>
<g id="a_node10_6"><a xlink:href="http://www.w3.org/ns/prov#label" xlink:title="&lt;TABLE&gt;">
<text text-anchor="start" x="498.5" y="-34.5" font-family="Times,serif" font-size="10.00">prov:label</text>
</a>
</g>
<text text-anchor="start" x="556.5" y="-34.5" font-family="Times,serif" font-size="10.00">Physical VCM</text>
<g id="a_node10_7"><a xlink:href="http://provenance.elaine.uni-rostock.de/dafileType" xlink:title="&lt;TABLE&gt;">
<text text-anchor="start" x="498.5" y="-21.5" font-family="Times,serif" font-size="10.00">da:fileType</text>
</a>
</g>
<text text-anchor="start" x="556.5" y="-21.5" font-family="Times,serif" font-size="10.00">mph</text>
<g id="a_node10_8"><a xlink:href="http://www.w3.org/2000/01/rdf-schema#comment" xlink:title="&lt;TABLE&gt;">
<text text-anchor="start" x="498.5" y="-8.5" font-family="Times,serif" font-size="10.00">rdfs:comment</text>
</a>
</g>
<text text-anchor="start" x="556.5" y="-8.5" font-family="Times,serif" font-size="10.00">This is part of the COMSOL project file</text>
</g>
<!-- ann5&#45;&gt;n5 -->
<g id="edge5" class="edge"><title>ann5&#45;&gt;n5</title>
<path fill="none" stroke="gray" stroke-dasharray="5,2" d="M608.5,-49.1737C608.5,-60.9254 608.5,-74.869 608.5,-85.6196"/>
</g>
<!-- n6 -->
<g id="node11" class="node"><title>n6</title>
<g id="a_node11"><a xlink:href="http://provenance.elaine.uni-rostock.de/mogeom" xlink:title="mo:geom">
<ellipse fill="#fffc87" stroke="#808080" cx="882.5" cy="-356" rx="44.6926" ry="18"/>
<text text-anchor="middle" x="882.5" y="-352.3" font-family="Times,serif" font-size="14.00">mo:geom</text>
</a>
</g>
</g>
<!-- ann6 -->
<g id="node12" class="node"><title>ann6</title>
<polygon fill="none" stroke="gray" points="1038.5,-301 794.5,-301 794.5,-252 1044.5,-252 1044.5,-295 1038.5,-301"/>
<polyline fill="none" stroke="gray" points="1038.5,-301 1038.5,-295 "/>
<polyline fill="none" stroke="gray" points="1044.5,-295 1038.5,-295 "/>
<g id="a_node12_9"><a xlink:href="http://www.w3.org/ns/prov#label" xlink:title="&lt;TABLE&gt;">
<text text-anchor="start" x="804.5" y="-286.5" font-family="Times,serif" font-size="10.00">prov:label</text>
</a>
</g>
<text text-anchor="start" x="862.5" y="-286.5" font-family="Times,serif" font-size="10.00">Geometrical 3D Model of all Components</text>
<g id="a_node12_10"><a xlink:href="http://provenance.elaine.uni-rostock.de/dafileType" xlink:title="&lt;TABLE&gt;">
<text text-anchor="start" x="804.5" y="-273.5" font-family="Times,serif" font-size="10.00">da:fileType</text>
</a>
</g>
<text text-anchor="start" x="862.5" y="-273.5" font-family="Times,serif" font-size="10.00">mph</text>
<g id="a_node12_11"><a xlink:href="http://www.w3.org/2000/01/rdf-schema#comment" xlink:title="&lt;TABLE&gt;">
<text text-anchor="start" x="804.5" y="-260.5" font-family="Times,serif" font-size="10.00">rdfs:comment</text>
</a>
</g>
<text text-anchor="start" x="862.5" y="-260.5" font-family="Times,serif" font-size="10.00">This is part of the COMSOL project file</text>
</g>
<!-- ann6&#45;&gt;n6 -->
<g id="edge6" class="edge"><title>ann6&#45;&gt;n6</title>
<path fill="none" stroke="gray" stroke-dasharray="5,2" d="M908.198,-301.174C902.502,-313.104 895.728,-327.292 890.566,-338.106"/>
</g>
<!-- b1&#45;&gt;n4 -->
<g id="edge9" class="edge"><title>b1&#45;&gt;n4</title>
<path fill="none" stroke="#fed37f" d="M324.805,-278.464C325.89,-281.804 329.806,-293.11 335.5,-301 344.399,-313.332 356.367,-325.171 367.039,-334.605"/>
<polygon fill="#fed37f" stroke="#fed37f" points="365.004,-337.47 374.875,-341.318 369.558,-332.154 365.004,-337.47"/>
</g>
<!-- ann7 -->
<g id="node14" class="node"><title>ann7</title>
<polygon fill="none" stroke="gray" points="353.5,-205 253.5,-205 253.5,-169 359.5,-169 359.5,-199 353.5,-205"/>
<polyline fill="none" stroke="gray" points="353.5,-205 353.5,-199 "/>
<polyline fill="none" stroke="gray" points="359.5,-199 353.5,-199 "/>
<g id="a_node14_12"><a xlink:href="http://www.w3.org/ns/prov#role" xlink:title="&lt;TABLE&gt;">
<text text-anchor="start" x="263.5" y="-184" font-family="Times,serif" font-size="10.00">prov:role</text>
</a>
</g>
<g id="a_node14_13"><a xlink:href="http://provenance.elaine.uni-rostock.de/agmodeler" xlink:title="&lt;TABLE&gt;">
<text text-anchor="start" x="303.5" y="-184" font-family="Times,serif" font-size="10.00">ag:modeler</text>
</a>
</g>
</g>
<!-- ann7&#45;&gt;b1 -->
<g id="edge10" class="edge"><title>ann7&#45;&gt;b1</title>
<path fill="none" stroke="gray" stroke-dasharray="5,2" d="M310.056,-205.287C314.81,-228.397 322.81,-267.285 324.268,-274.374"/>
</g>
<!-- b2&#45;&gt;n1 -->
<g id="edge12" class="edge"><title>b2&#45;&gt;n1</title>
<path fill="none" stroke="#8b0000" d="M210.233,-278.493C209.272,-281.929 205.711,-293.51 199.5,-301 188.663,-314.07 173.97,-325.562 160.461,-334.546"/>
<polygon fill="#8b0000" stroke="#8b0000" points="158.346,-331.744 151.806,-340.08 162.117,-337.642 158.346,-331.744"/>
</g>
<!-- ann8 -->
<g id="node16" class="node"><title>ann8</title>
<polygon fill="none" stroke="gray" points="229,-205 122,-205 122,-169 235,-169 235,-199 229,-205"/>
<polyline fill="none" stroke="gray" points="229,-205 229,-199 "/>
<polyline fill="none" stroke="gray" points="235,-199 229,-199 "/>
<g id="a_node16_14"><a xlink:href="http://www.w3.org/ns/prov#role" xlink:title="&lt;TABLE&gt;">
<text text-anchor="start" x="132.5" y="-184" font-family="Times,serif" font-size="10.00">prov:role</text>
</a>
</g>
<g id="a_node16_15"><a xlink:href="http://provenance.elaine.uni-rostock.de/daparameter" xlink:title="&lt;TABLE&gt;">
<text text-anchor="start" x="172.5" y="-184" font-family="Times,serif" font-size="10.00">da:parameter</text>
</a>
</g>
</g>
<!-- ann8&#45;&gt;b2 -->
<g id="edge13" class="edge"><title>ann8&#45;&gt;b2</title>
<path fill="none" stroke="gray" stroke-dasharray="5,2" d="M184.822,-205.287C193.419,-228.795 207.988,-268.631 210.212,-274.712"/>
</g>
<!-- b3&#45;&gt;n2 -->
<g id="edge15" class="edge"><title>b3&#45;&gt;n2</title>
<path fill="none" stroke="#8b0000" d="M538.836,-278.443C540.024,-281.713 544.236,-292.817 549.5,-301 556.509,-311.894 565.524,-322.953 573.714,-332.201"/>
<polygon fill="#8b0000" stroke="#8b0000" points="571.313,-334.763 580.627,-339.813 576.495,-330.057 571.313,-334.763"/>
</g>
<!-- ann9 -->
<g id="node18" class="node"><title>ann9</title>
<polygon fill="none" stroke="gray" points="707.5,-205 541.5,-205 541.5,-169 713.5,-169 713.5,-199 707.5,-205"/>
<polyline fill="none" stroke="gray" points="707.5,-205 707.5,-199 "/>
<polyline fill="none" stroke="gray" points="713.5,-199 707.5,-199 "/>
<g id="a_node18_16"><a xlink:href="http://www.w3.org/ns/prov#role" xlink:title="&lt;TABLE&gt;">
<text text-anchor="start" x="551.5" y="-184" font-family="Times,serif" font-size="10.00">prov:role</text>
</a>
</g>
<g id="a_node18_17"><a xlink:href="http://provenance.elaine.uni-rostock.de/swsoftwareToParameterise" xlink:title="&lt;TABLE&gt;">
<text text-anchor="start" x="591.5" y="-184" font-family="Times,serif" font-size="10.00">sw:softwareToParameterise</text>
</a>
</g>
</g>
<!-- ann9&#45;&gt;b3 -->
<g id="edge16" class="edge"><title>ann9&#45;&gt;b3</title>
<path fill="none" stroke="gray" stroke-dasharray="5,2" d="M601.055,-205.125C584.601,-216.801 563.905,-233.468 549.5,-252 543.529,-259.682 539.803,-271.131 538.784,-274.521"/>
</g>
<!-- b4&#45;&gt;n6 -->
<g id="edge18" class="edge"><title>b4&#45;&gt;n6</title>
<path fill="none" stroke="#8b0000" d="M774.736,-278.521C775.596,-282.046 778.865,-293.883 785.5,-301 800.79,-317.403 822.217,-330.05 841.045,-338.967"/>
<polygon fill="#8b0000" stroke="#8b0000" points="839.769,-342.231 850.323,-343.167 842.656,-335.854 839.769,-342.231"/>
</g>
<!-- ann10 -->
<g id="node20" class="node"><title>ann10</title>
<polygon fill="none" stroke="gray" points="827.5,-205 731.5,-205 731.5,-169 833.5,-169 833.5,-199 827.5,-205"/>
<polyline fill="none" stroke="gray" points="827.5,-205 827.5,-199 "/>
<polyline fill="none" stroke="gray" points="833.5,-199 827.5,-199 "/>
<g id="a_node20_18"><a xlink:href="http://www.w3.org/ns/prov#role" xlink:title="&lt;TABLE&gt;">
<text text-anchor="start" x="741.5" y="-184" font-family="Times,serif" font-size="10.00">prov:role</text>
</a>
</g>
<g id="a_node20_19"><a xlink:href="http://provenance.elaine.uni-rostock.de/momodel" xlink:title="&lt;TABLE&gt;">
<text text-anchor="start" x="781.5" y="-184" font-family="Times,serif" font-size="10.00">mo:model</text>
</a>
</g>
</g>
<!-- ann10&#45;&gt;b4 -->
<g id="edge19" class="edge"><title>ann10&#45;&gt;b4</title>
<path fill="none" stroke="gray" stroke-dasharray="5,2" d="M780.919,-205.287C778.807,-228.397 775.251,-267.285 774.603,-274.374"/>
</g>
</g>
</svg>
