<?xml version="1.0" encoding="UTF-8" standalone="no"?>
<!DOCTYPE svg PUBLIC "-//W3C//DTD SVG 1.1//EN"
 "http://www.w3.org/Graphics/SVG/1.1/DTD/svg11.dtd">
<!-- Generated by graphviz version 2.38.0 (20140413.2041)
 -->
<!-- Title: G Pages: 1 -->
<svg width="1144pt" height="356pt"
 viewBox="0.00 0.00 1144.00 356.00" xmlns="http://www.w3.org/2000/svg" xmlns:xlink="http://www.w3.org/1999/xlink">
<g id="graph0" class="graph" transform="scale(1 1) rotate(0) translate(4 352)">
<title>G</title>
<polygon fill="white" stroke="none" points="-4,4 -4,-352 1140,-352 1140,4 -4,4"/>
<!-- n1 -->
<g id="node1" class="node"><title>n1</title>
<g id="a_node1"><a xlink:href="http://provenance.elaine.uni-rostock.de/mor3d" xlink:title="mo:r3d">
<ellipse fill="#fffc87" stroke="#808080" cx="208.5" cy="-330" rx="44.393" ry="18"/>
<text text-anchor="middle" x="208.5" y="-326.3" font-family="Times,serif" font-size="14.00">mo:r3d</text>
</a>
</g>
</g>
<!-- ann1 -->
<g id="node2" class="node"><title>ann1</title>
<polygon fill="none" stroke="gray" points="319,-275 2.84217e-14,-275 2.84217e-14,-239 325,-239 325,-269 319,-275"/>
<polyline fill="none" stroke="gray" points="319,-275 319,-269 "/>
<polyline fill="none" stroke="gray" points="325,-269 319,-269 "/>
<g id="a_node2_0"><a xlink:href="http://www.w3.org/ns/prov#label" xlink:title="&lt;TABLE&gt;">
<text text-anchor="start" x="10.5" y="-261" font-family="Times,serif" font-size="10.00">prov:label</text>
</a>
</g>
<text text-anchor="start" x="66.5" y="-261" font-family="Times,serif" font-size="10.00">Raw 3D Model with unwanted geometrical features</text>
<g id="a_node2_1"><a xlink:href="http://provenance.elaine.uni-rostock.de/dafileType" xlink:title="&lt;TABLE&gt;">
<text text-anchor="start" x="10.5" y="-248" font-family="Times,serif" font-size="10.00">da:fileType</text>
</a>
</g>
<text text-anchor="start" x="66.5" y="-248" font-family="Times,serif" font-size="10.00">STL</text>
</g>
<!-- ann1&#45;&gt;n1 -->
<g id="edge1" class="edge"><title>ann1&#45;&gt;n1</title>
<path fill="none" stroke="gray" stroke-dasharray="5,2" d="M173.635,-275.187C180.974,-286.514 190.532,-301.267 197.784,-312.46"/>
</g>
<!-- n2 -->
<g id="node3" class="node"><title>n2</title>
<g id="a_node3"><a xlink:href="http://provenance.elaine.uni-rostock.de/mo3d_1" xlink:title="mo:3d_1">
<ellipse fill="#fffc87" stroke="#808080" cx="478.5" cy="-91" rx="50.0912" ry="18"/>
<text text-anchor="middle" x="478.5" y="-87.3" font-family="Times,serif" font-size="14.00">mo:3d_1</text>
</a>
</g>
</g>
<!-- n5 -->
<g id="node9" class="node"><title>n5</title>
<g id="a_node9"><a xlink:href="http://provenance.elaine.uni-rostock.de/marefinement:a2" xlink:title="ma:refinement:a2">
<polygon fill="#9fb1fc" stroke="#0000ff" points="675,-192 532,-192 532,-156 675,-156 675,-192"/>
<text text-anchor="middle" x="603.5" y="-170.3" font-family="Times,serif" font-size="14.00">ma:refinement:a2</text>
</a>
</g>
</g>
<!-- n2&#45;&gt;n5 -->
<g id="edge7" class="edge"><title>n2&#45;&gt;n5</title>
<path fill="none" stroke="darkgreen" d="M497.384,-107.727C508.923,-117.017 524.171,-128.734 538.5,-138 545.311,-142.404 552.726,-146.769 560.031,-150.846"/>
<polygon fill="darkgreen" stroke="darkgreen" points="558.717,-154.116 569.171,-155.837 562.071,-147.973 558.717,-154.116"/>
<text text-anchor="middle" x="579.5" y="-130" font-family="Times,serif" font-size="10.00" fill="darkgreen">wasGeneratedBy</text>
</g>
<!-- ann2 -->
<g id="node4" class="node"><title>ann2</title>
<polygon fill="none" stroke="gray" points="598,-36 353,-36 353,-0 604,-0 604,-30 598,-36"/>
<polyline fill="none" stroke="gray" points="598,-36 598,-30 "/>
<polyline fill="none" stroke="gray" points="604,-30 598,-30 "/>
<g id="a_node4_2"><a xlink:href="http://www.w3.org/ns/prov#label" xlink:title="&lt;TABLE&gt;">
<text text-anchor="start" x="363.5" y="-22" font-family="Times,serif" font-size="10.00">prov:label</text>
</a>
</g>
<text text-anchor="start" x="419.5" y="-22" font-family="Times,serif" font-size="10.00">Smoothed and cleaned 3D Model v1</text>
<g id="a_node4_3"><a xlink:href="http://provenance.elaine.uni-rostock.de/dafileType" xlink:title="&lt;TABLE&gt;">
<text text-anchor="start" x="363.5" y="-9" font-family="Times,serif" font-size="10.00">da:fileType</text>
</a>
</g>
<text text-anchor="start" x="419.5" y="-9" font-family="Times,serif" font-size="10.00">STL</text>
</g>
<!-- ann2&#45;&gt;n2 -->
<g id="edge2" class="edge"><title>ann2&#45;&gt;n2</title>
<path fill="none" stroke="gray" stroke-dasharray="5,2" d="M478.5,-36.1871C478.5,-47.3501 478.5,-61.8398 478.5,-72.9712"/>
</g>
<!-- n3 -->
<g id="node5" class="node"><title>n3</title>
<g id="a_node5"><a xlink:href="http://provenance.elaine.uni-rostock.de/asclean_surface" xlink:title="as:clean_surface">
<ellipse fill="#fffc87" stroke="#808080" cx="973.5" cy="-330" rx="88.2844" ry="18"/>
<text text-anchor="middle" x="973.5" y="-326.3" font-family="Times,serif" font-size="14.00">as:clean_surface</text>
</a>
</g>
</g>
<!-- ann3 -->
<g id="node6" class="node"><title>ann3</title>
<polygon fill="none" stroke="gray" points="1130,-275 975,-275 975,-239 1136,-239 1136,-269 1130,-275"/>
<polyline fill="none" stroke="gray" points="1130,-275 1130,-269 "/>
<polyline fill="none" stroke="gray" points="1136,-269 1130,-269 "/>
<g id="a_node6_4"><a xlink:href="http://www.w3.org/ns/prov#label" xlink:title="&lt;TABLE&gt;">
<text text-anchor="start" x="985.5" y="-254" font-family="Times,serif" font-size="10.00">prov:label</text>
</a>
</g>
<text text-anchor="start" x="1036.5" y="-254" font-family="Times,serif" font-size="10.00">Surfaces are clean</text>
</g>
<!-- ann3&#45;&gt;n3 -->
<g id="edge3" class="edge"><title>ann3&#45;&gt;n3</title>
<path fill="none" stroke="gray" stroke-dasharray="5,2" d="M1035.65,-275.187C1022.66,-286.432 1005.78,-301.053 992.884,-312.216"/>
</g>
<!-- n4 -->
<g id="node7" class="node"><title>n4</title>
<g id="a_node7"><a xlink:href="http://provenance.elaine.uni-rostock.de/aguz" xlink:title="ag:uz">
<polygon fill="#fed37f" stroke="black" points="591.872,-335.562 547.5,-348 503.128,-335.562 503.17,-315.438 591.83,-315.438 591.872,-335.562"/>
<text text-anchor="middle" x="547.5" y="-326.3" font-family="Times,serif" font-size="14.00">ag:uz</text>
</a>
</g>
</g>
<!-- ann4 -->
<g id="node8" class="node"><title>ann4</title>
<polygon fill="none" stroke="gray" points="667.5,-275 489.5,-275 489.5,-239 673.5,-239 673.5,-269 667.5,-275"/>
<polyline fill="none" stroke="gray" points="667.5,-275 667.5,-269 "/>
<polyline fill="none" stroke="gray" points="673.5,-269 667.5,-269 "/>
<g id="a_node8_5"><a xlink:href="http://www.w3.org/ns/prov#type" xlink:title="&lt;TABLE&gt;">
<text text-anchor="start" x="499.5" y="-261" font-family="Times,serif" font-size="10.00">prov:type</text>
</a>
</g>
<g id="a_node8_6"><a xlink:href="http://www.w3.org/ns/prov#Person" xlink:title="&lt;TABLE&gt;">
<text text-anchor="start" x="579.5" y="-261" font-family="Times,serif" font-size="10.00">prov:Person</text>
</a>
</g>
<g id="a_node8_7"><a xlink:href="http://xmlns.com/foaf/spec/#givenName" xlink:title="&lt;TABLE&gt;">
<text text-anchor="start" x="499.5" y="-248" font-family="Times,serif" font-size="10.00">foaf:givenName</text>
</a>
</g>
<text text-anchor="start" x="579.5" y="-248" font-family="Times,serif" font-size="10.00">Ulf Zimmermann</text>
</g>
<!-- ann4&#45;&gt;n4 -->
<g id="edge4" class="edge"><title>ann4&#45;&gt;n4</title>
<path fill="none" stroke="gray" stroke-dasharray="5,2" d="M573.27,-275.187C567.374,-287.499 559.54,-303.858 554.063,-315.295"/>
</g>
<!-- b1 -->
<g id="node13" class="node"><title>b1</title>
<ellipse fill="gray" stroke="gray" cx="469.5" cy="-257" rx="1.8" ry="1.8"/>
</g>
<!-- n5&#45;&gt;b1 -->
<g id="edge8" class="edge"><title>n5&#45;&gt;b1</title>
<path fill="none" stroke="#fed37f" d="M557.62,-192.089C532.844,-202.893 502.847,-218.671 480.5,-239 475.091,-243.92 471.21,-252.068 469.945,-254.95"/>
<text text-anchor="middle" x="567" y="-213" font-family="Times,serif" font-size="10.00">wasAssociatedWith</text>
</g>
<!-- b2 -->
<g id="node15" class="node"><title>b2</title>
<ellipse fill="gray" stroke="gray" cx="725.5" cy="-257" rx="1.8" ry="1.8"/>
</g>
<!-- n5&#45;&gt;b2 -->
<g id="edge11" class="edge"><title>n5&#45;&gt;b2</title>
<path fill="none" stroke="#8b0000" d="M629.373,-192.178C662.387,-214.097 716.225,-249.842 724.436,-255.294"/>
<text text-anchor="middle" x="682.5" y="-213" font-family="Times,serif" font-size="10.00" fill="red">used</text>
</g>
<!-- b3 -->
<g id="node17" class="node"><title>b3</title>
<ellipse fill="gray" stroke="gray" cx="955.5" cy="-257" rx="1.8" ry="1.8"/>
</g>
<!-- n5&#45;&gt;b3 -->
<g id="edge14" class="edge"><title>n5&#45;&gt;b3</title>
<path fill="none" stroke="#8b0000" d="M675.04,-190.085C678.236,-190.737 681.401,-191.378 684.5,-192 793.204,-213.832 826.713,-197.432 929.5,-239 940.299,-243.367 951.385,-252.467 954.585,-255.204"/>
<text text-anchor="middle" x="885.5" y="-213" font-family="Times,serif" font-size="10.00" fill="red">used</text>
</g>
<!-- b4 -->
<g id="node19" class="node"><title>b4</title>
<ellipse fill="gray" stroke="gray" cx="344.5" cy="-257" rx="1.8" ry="1.8"/>
</g>
<!-- n5&#45;&gt;b4 -->
<g id="edge17" class="edge"><title>n5&#45;&gt;b4</title>
<path fill="none" stroke="#8b0000" d="M539.175,-192.04C519.324,-197.521 497.442,-203.788 477.5,-210 422.449,-227.148 355.868,-251.773 345.8,-255.516"/>
<text text-anchor="middle" x="488.5" y="-213" font-family="Times,serif" font-size="10.00" fill="red">used</text>
</g>
<!-- ann5 -->
<g id="node10" class="node"><title>ann5</title>
<polygon fill="none" stroke="gray" points="752,-109 547,-109 547,-73 758,-73 758,-103 752,-109"/>
<polyline fill="none" stroke="gray" points="752,-109 752,-103 "/>
<polyline fill="none" stroke="gray" points="758,-103 752,-103 "/>
<g id="a_node10_8"><a xlink:href="http://www.w3.org/ns/prov#label" xlink:title="&lt;TABLE&gt;">
<text text-anchor="start" x="557.5" y="-88" font-family="Times,serif" font-size="10.00">prov:label</text>
</a>
</g>
<text text-anchor="start" x="608.5" y="-88" font-family="Times,serif" font-size="10.00">Smooth and Clean 3D Model</text>
</g>
<!-- ann5&#45;&gt;n5 -->
<g id="edge5" class="edge"><title>ann5&#45;&gt;n5</title>
<path fill="none" stroke="gray" stroke-dasharray="5,2" d="M642.108,-109.178C633.793,-122.924 622.188,-142.107 613.877,-155.847"/>
</g>
<!-- n6 -->
<g id="node11" class="node"><title>n6</title>
<g id="a_node11"><a xlink:href="http://provenance.elaine.uni-rostock.de/swgm" xlink:title="sw:gm">
<ellipse fill="#fffc87" stroke="#808080" cx="796.5" cy="-330" rx="40.8928" ry="18"/>
<text text-anchor="middle" x="796.5" y="-326.3" font-family="Times,serif" font-size="14.00">sw:gm</text>
</a>
</g>
</g>
<!-- ann6 -->
<g id="node12" class="node"><title>ann6</title>
<polygon fill="none" stroke="gray" points="914,-275 745,-275 745,-239 920,-239 920,-269 914,-275"/>
<polyline fill="none" stroke="gray" points="914,-275 914,-269 "/>
<polyline fill="none" stroke="gray" points="920,-269 914,-269 "/>
<g id="a_node12_9"><a xlink:href="http://www.w3.org/ns/prov#label" xlink:title="&lt;TABLE&gt;">
<text text-anchor="start" x="755.5" y="-254" font-family="Times,serif" font-size="10.00">prov:label</text>
</a>
</g>
<text text-anchor="start" x="806.5" y="-254" font-family="Times,serif" font-size="10.00">Geomagic Studio v12</text>
</g>
<!-- ann6&#45;&gt;n6 -->
<g id="edge6" class="edge"><title>ann6&#45;&gt;n6</title>
<path fill="none" stroke="gray" stroke-dasharray="5,2" d="M823.785,-275.187C818.125,-286.35 810.778,-300.84 805.134,-311.971"/>
</g>
<!-- b1&#45;&gt;n4 -->
<g id="edge9" class="edge"><title>b1&#45;&gt;n4</title>
<path fill="none" stroke="#fed37f" d="M469.999,-258.996C471.403,-261.74 475.606,-269.568 480.5,-275 491.875,-287.625 506.37,-299.692 518.966,-309.204"/>
<polygon fill="#fed37f" stroke="#fed37f" points="517.193,-312.246 527.321,-315.357 521.344,-306.609 517.193,-312.246"/>
</g>
<!-- ann7 -->
<g id="node14" class="node"><title>ann7</title>
<polygon fill="none" stroke="gray" points="508,-192 393,-192 393,-156 514,-156 514,-186 508,-192"/>
<polyline fill="none" stroke="gray" points="508,-192 508,-186 "/>
<polyline fill="none" stroke="gray" points="514,-186 508,-186 "/>
<g id="a_node14_10"><a xlink:href="http://www.w3.org/ns/prov#role" xlink:title="&lt;TABLE&gt;">
<text text-anchor="start" x="403.5" y="-171" font-family="Times,serif" font-size="10.00">prov:role</text>
</a>
</g>
<g id="a_node14_11"><a xlink:href="http://provenance.elaine.uni-rostock.de/agmodeler" xlink:title="&lt;TABLE&gt;">
<text text-anchor="start" x="449.5" y="-171" font-family="Times,serif" font-size="10.00">ag:modeler</text>
</a>
</g>
</g>
<!-- ann7&#45;&gt;b1 -->
<g id="edge10" class="edge"><title>ann7&#45;&gt;b1</title>
<path fill="none" stroke="gray" stroke-dasharray="5,2" d="M456.893,-192.178C461.15,-213.726 468.045,-248.635 469.301,-254.991"/>
</g>
<!-- b2&#45;&gt;n6 -->
<g id="edge12" class="edge"><title>b2&#45;&gt;n6</title>
<path fill="none" stroke="#8b0000" d="M726.015,-258.982C727.459,-261.691 731.755,-269.437 736.5,-275 746.283,-286.471 758.439,-297.837 769.247,-307.161"/>
<polygon fill="#8b0000" stroke="#8b0000" points="767.287,-310.086 777.186,-313.86 771.801,-304.736 767.287,-310.086"/>
</g>
<!-- ann8 -->
<g id="node16" class="node"><title>ann8</title>
<polygon fill="none" stroke="gray" points="854,-192 693,-192 693,-156 860,-156 860,-186 854,-192"/>
<polyline fill="none" stroke="gray" points="854,-192 854,-186 "/>
<polyline fill="none" stroke="gray" points="860,-186 854,-186 "/>
<g id="a_node16_12"><a xlink:href="http://www.w3.org/ns/prov#role" xlink:title="&lt;TABLE&gt;">
<text text-anchor="start" x="703.5" y="-171" font-family="Times,serif" font-size="10.00">prov:role</text>
</a>
</g>
<g id="a_node16_13"><a xlink:href="http://provenance.elaine.uni-rostock.de/swsoftwareToRefine" xlink:title="&lt;TABLE&gt;">
<text text-anchor="start" x="749.5" y="-171" font-family="Times,serif" font-size="10.00">sw:softwareToRefine</text>
</a>
</g>
</g>
<!-- ann8&#45;&gt;b2 -->
<g id="edge13" class="edge"><title>ann8&#45;&gt;b2</title>
<path fill="none" stroke="gray" stroke-dasharray="5,2" d="M765.684,-192.178C752.117,-213.726 730.138,-248.635 726.136,-254.991"/>
</g>
<!-- b3&#45;&gt;n3 -->
<g id="edge15" class="edge"><title>b3&#45;&gt;n3</title>
<path fill="none" stroke="#8b0000" d="M955.702,-258.797C956.799,-263.122 962.15,-284.231 966.701,-302.183"/>
<polygon fill="#8b0000" stroke="#8b0000" points="963.333,-303.138 969.183,-311.971 970.118,-301.418 963.333,-303.138"/>
</g>
<!-- ann9 -->
<g id="node18" class="node"><title>ann9</title>
<polygon fill="none" stroke="gray" points="1059,-192 878,-192 878,-156 1065,-156 1065,-186 1059,-192"/>
<polyline fill="none" stroke="gray" points="1059,-192 1059,-186 "/>
<polyline fill="none" stroke="gray" points="1065,-186 1059,-186 "/>
<g id="a_node18_14"><a xlink:href="http://www.w3.org/ns/prov#role" xlink:title="&lt;TABLE&gt;">
<text text-anchor="start" x="888.5" y="-171" font-family="Times,serif" font-size="10.00">prov:role</text>
</a>
</g>
<g id="a_node18_15"><a xlink:href="http://provenance.elaine.uni-rostock.de/asrefinementAssumption" xlink:title="&lt;TABLE&gt;">
<text text-anchor="start" x="934.5" y="-171" font-family="Times,serif" font-size="10.00">as:refinementAssumption</text>
</a>
</g>
</g>
<!-- ann9&#45;&gt;b3 -->
<g id="edge16" class="edge"><title>ann9&#45;&gt;b3</title>
<path fill="none" stroke="gray" stroke-dasharray="5,2" d="M968.107,-192.178C963.85,-213.726 956.955,-248.635 955.699,-254.991"/>
</g>
<!-- b4&#45;&gt;n1 -->
<g id="edge18" class="edge"><title>b4&#45;&gt;n1</title>
<path fill="none" stroke="#8b0000" d="M344.074,-259.071C342.855,-262.006 339.082,-270.278 333.5,-275 310.636,-294.342 279.79,-307.764 254.462,-316.39"/>
<polygon fill="#8b0000" stroke="#8b0000" points="253.12,-313.146 244.698,-319.574 255.291,-319.801 253.12,-313.146"/>
</g>
<!-- ann10 -->
<g id="node20" class="node"><title>ann10</title>
<polygon fill="none" stroke="gray" points="369,-192 242,-192 242,-156 375,-156 375,-186 369,-192"/>
<polyline fill="none" stroke="gray" points="369,-192 369,-186 "/>
<polyline fill="none" stroke="gray" points="375,-186 369,-186 "/>
<g id="a_node20_16"><a xlink:href="http://www.w3.org/ns/prov#role" xlink:title="&lt;TABLE&gt;">
<text text-anchor="start" x="252.5" y="-171" font-family="Times,serif" font-size="10.00">prov:role</text>
</a>
</g>
<g id="a_node20_17"><a xlink:href="http://provenance.elaine.uni-rostock.de/morawModel" xlink:title="&lt;TABLE&gt;">
<text text-anchor="start" x="298.5" y="-171" font-family="Times,serif" font-size="10.00">mo:rawModel</text>
</a>
</g>
</g>
<!-- ann10&#45;&gt;b4 -->
<g id="edge19" class="edge"><title>ann10&#45;&gt;b4</title>
<path fill="none" stroke="gray" stroke-dasharray="5,2" d="M316.135,-192.178C325.711,-213.726 341.226,-248.635 344.051,-254.991"/>
</g>
</g>
</svg>
