<?xml version="1.0" encoding="UTF-8" standalone="no"?>
<!DOCTYPE svg PUBLIC "-//W3C//DTD SVG 1.1//EN"
 "http://www.w3.org/Graphics/SVG/1.1/DTD/svg11.dtd">
<!-- Generated by graphviz version 2.38.0 (20140413.2041)
 -->
<!-- Title: G Pages: 1 -->
<svg width="1010pt" height="356pt"
 viewBox="0.00 0.00 1009.50 356.00" xmlns="http://www.w3.org/2000/svg" xmlns:xlink="http://www.w3.org/1999/xlink">
<g id="graph0" class="graph" transform="scale(1 1) rotate(0) translate(4 352)">
<title>G</title>
<polygon fill="white" stroke="none" points="-4,4 -4,-352 1005.5,-352 1005.5,4 -4,4"/>
<!-- n1 -->
<g id="node1" class="node"><title>n1</title>
<g id="a_node1"><a xlink:href="http://provenance.elaine.uni-rostock.de/mor3d" xlink:title="mo:r3d">
<ellipse fill="#fffc87" stroke="#808080" cx="180.5" cy="-330" rx="36.2938" ry="18"/>
<text text-anchor="middle" x="180.5" y="-326.3" font-family="Times,serif" font-size="14.00">mo:r3d</text>
</a>
</g>
</g>
<!-- ann1 -->
<g id="node2" class="node"><title>ann1</title>
<polygon fill="none" stroke="gray" points="275,-275 0,-275 0,-239 281,-239 281,-269 275,-275"/>
<polyline fill="none" stroke="gray" points="275,-275 275,-269 "/>
<polyline fill="none" stroke="gray" points="281,-269 275,-269 "/>
<g id="a_node2_0"><a xlink:href="http://www.w3.org/ns/prov#label" xlink:title="&lt;TABLE&gt;">
<text text-anchor="start" x="10.5" y="-261" font-family="Times,serif" font-size="10.00">prov:label</text>
</a>
</g>
<text text-anchor="start" x="60.5" y="-261" font-family="Times,serif" font-size="10.00">Raw 3D Model with unwanted geometrical features</text>
<g id="a_node2_1"><a xlink:href="http://provenance.elaine.uni-rostock.de/dafileType" xlink:title="&lt;TABLE&gt;">
<text text-anchor="start" x="10.5" y="-248" font-family="Times,serif" font-size="10.00">da:fileType</text>
</a>
</g>
<text text-anchor="start" x="60.5" y="-248" font-family="Times,serif" font-size="10.00">STL</text>
</g>
<!-- ann1&#45;&gt;n1 -->
<g id="edge1" class="edge"><title>ann1&#45;&gt;n1</title>
<path fill="none" stroke="gray" stroke-dasharray="5,2" d="M150.183,-275.187C156.564,-286.514 164.876,-301.267 171.182,-312.46"/>
</g>
<!-- n2 -->
<g id="node3" class="node"><title>n2</title>
<g id="a_node3"><a xlink:href="http://provenance.elaine.uni-rostock.de/mo3d_1" xlink:title="mo:3d_1">
<ellipse fill="#fffc87" stroke="#808080" cx="415.5" cy="-91" rx="42.4939" ry="18"/>
<text text-anchor="middle" x="415.5" y="-87.3" font-family="Times,serif" font-size="14.00">mo:3d_1</text>
</a>
</g>
</g>
<!-- n5 -->
<g id="node9" class="node"><title>n5</title>
<g id="a_node9"><a xlink:href="http://provenance.elaine.uni-rostock.de/marefinement:a2" xlink:title="ma:refinement:a2">
<polygon fill="#9fb1fc" stroke="#0000ff" points="582,-192 469,-192 469,-156 582,-156 582,-192"/>
<text text-anchor="middle" x="525.5" y="-170.3" font-family="Times,serif" font-size="14.00">ma:refinement:a2</text>
</a>
</g>
</g>
<!-- n2&#45;&gt;n5 -->
<g id="edge7" class="edge"><title>n2&#45;&gt;n5</title>
<path fill="none" stroke="darkgreen" d="M432.48,-107.587C442.86,-116.826 456.583,-128.541 469.5,-138 475.351,-142.284 481.729,-146.588 488.016,-150.64"/>
<polygon fill="darkgreen" stroke="darkgreen" points="486.153,-153.603 496.476,-155.985 489.891,-147.685 486.153,-153.603"/>
<text text-anchor="middle" x="504.5" y="-130" font-family="Times,serif" font-size="10.00" fill="darkgreen">wasGeneratedBy</text>
</g>
<!-- ann2 -->
<g id="node4" class="node"><title>ann2</title>
<polygon fill="none" stroke="gray" points="519.5,-36 305.5,-36 305.5,-0 525.5,-0 525.5,-30 519.5,-36"/>
<polyline fill="none" stroke="gray" points="519.5,-36 519.5,-30 "/>
<polyline fill="none" stroke="gray" points="525.5,-30 519.5,-30 "/>
<g id="a_node4_2"><a xlink:href="http://www.w3.org/ns/prov#label" xlink:title="&lt;TABLE&gt;">
<text text-anchor="start" x="315.5" y="-22" font-family="Times,serif" font-size="10.00">prov:label</text>
</a>
</g>
<text text-anchor="start" x="365.5" y="-22" font-family="Times,serif" font-size="10.00">Smoothed and cleaned 3D Model v1</text>
<g id="a_node4_3"><a xlink:href="http://provenance.elaine.uni-rostock.de/dafileType" xlink:title="&lt;TABLE&gt;">
<text text-anchor="start" x="315.5" y="-9" font-family="Times,serif" font-size="10.00">da:fileType</text>
</a>
</g>
<text text-anchor="start" x="365.5" y="-9" font-family="Times,serif" font-size="10.00">STL</text>
</g>
<!-- ann2&#45;&gt;n2 -->
<g id="edge2" class="edge"><title>ann2&#45;&gt;n2</title>
<path fill="none" stroke="gray" stroke-dasharray="5,2" d="M415.5,-36.1871C415.5,-47.3501 415.5,-61.8398 415.5,-72.9712"/>
</g>
<!-- n3 -->
<g id="node5" class="node"><title>n3</title>
<g id="a_node5"><a xlink:href="http://provenance.elaine.uni-rostock.de/aguz" xlink:title="ag:uz">
<polygon fill="#fed37f" stroke="black" points="525.41,-335.562 488.5,-348 451.59,-335.562 451.624,-315.438 525.376,-315.438 525.41,-335.562"/>
<text text-anchor="middle" x="488.5" y="-326.3" font-family="Times,serif" font-size="14.00">ag:uz</text>
</a>
</g>
</g>
<!-- ann3 -->
<g id="node6" class="node"><title>ann3</title>
<polygon fill="none" stroke="gray" points="593,-275 440,-275 440,-239 599,-239 599,-269 593,-275"/>
<polyline fill="none" stroke="gray" points="593,-275 593,-269 "/>
<polyline fill="none" stroke="gray" points="599,-269 593,-269 "/>
<g id="a_node6_4"><a xlink:href="http://www.w3.org/ns/prov#type" xlink:title="&lt;TABLE&gt;">
<text text-anchor="start" x="450.5" y="-261" font-family="Times,serif" font-size="10.00">prov:type</text>
</a>
</g>
<g id="a_node6_5"><a xlink:href="http://www.w3.org/ns/prov#Person" xlink:title="&lt;TABLE&gt;">
<text text-anchor="start" x="519.5" y="-261" font-family="Times,serif" font-size="10.00">prov:Person</text>
</a>
</g>
<g id="a_node6_6"><a xlink:href="http://xmlns.com/foaf/spec/#givenName" xlink:title="&lt;TABLE&gt;">
<text text-anchor="start" x="450.5" y="-248" font-family="Times,serif" font-size="10.00">foaf:givenName</text>
</a>
</g>
<text text-anchor="start" x="519.5" y="-248" font-family="Times,serif" font-size="10.00">Ulf Zimmermann</text>
</g>
<!-- ann3&#45;&gt;n3 -->
<g id="edge3" class="edge"><title>ann3&#45;&gt;n3</title>
<path fill="none" stroke="gray" stroke-dasharray="5,2" d="M511.996,-275.187C506.62,-287.499 499.477,-303.858 494.484,-315.295"/>
</g>
<!-- n4 -->
<g id="node7" class="node"><title>n4</title>
<g id="a_node7"><a xlink:href="http://provenance.elaine.uni-rostock.de/asclean_surface" xlink:title="as:clean_surface">
<ellipse fill="#fffc87" stroke="#808080" cx="851.5" cy="-330" rx="68.7879" ry="18"/>
<text text-anchor="middle" x="851.5" y="-326.3" font-family="Times,serif" font-size="14.00">as:clean_surface</text>
</a>
</g>
</g>
<!-- ann4 -->
<g id="node8" class="node"><title>ann4</title>
<polygon fill="none" stroke="gray" points="995.5,-275 863.5,-275 863.5,-239 1001.5,-239 1001.5,-269 995.5,-275"/>
<polyline fill="none" stroke="gray" points="995.5,-275 995.5,-269 "/>
<polyline fill="none" stroke="gray" points="1001.5,-269 995.5,-269 "/>
<g id="a_node8_7"><a xlink:href="http://www.w3.org/ns/prov#label" xlink:title="&lt;TABLE&gt;">
<text text-anchor="start" x="873.5" y="-254" font-family="Times,serif" font-size="10.00">prov:label</text>
</a>
</g>
<text text-anchor="start" x="918.5" y="-254" font-family="Times,serif" font-size="10.00">Surfaces are clean</text>
</g>
<!-- ann4&#45;&gt;n4 -->
<g id="edge4" class="edge"><title>ann4&#45;&gt;n4</title>
<path fill="none" stroke="gray" stroke-dasharray="5,2" d="M912.892,-275.187C899.97,-286.514 883.139,-301.267 870.37,-312.46"/>
</g>
<!-- b1 -->
<g id="node13" class="node"><title>b1</title>
<ellipse fill="gray" stroke="gray" cx="300.5" cy="-257" rx="1.8" ry="1.8"/>
</g>
<!-- n5&#45;&gt;b1 -->
<g id="edge8" class="edge"><title>n5&#45;&gt;b1</title>
<path fill="none" stroke="#8b0000" d="M478.058,-192.079C416.172,-214.358 314.265,-251.044 301.769,-255.543"/>
<text text-anchor="middle" x="435" y="-213" font-family="Times,serif" font-size="10.00" fill="red">used</text>
</g>
<!-- b2 -->
<g id="node15" class="node"><title>b2</title>
<ellipse fill="gray" stroke="gray" cx="420.5" cy="-257" rx="1.8" ry="1.8"/>
</g>
<!-- n5&#45;&gt;b2 -->
<g id="edge11" class="edge"><title>n5&#45;&gt;b2</title>
<path fill="none" stroke="#fed37f" d="M493.96,-192.117C474.503,-203.676 449.848,-220.216 431.5,-239 426.391,-244.231 422.322,-252.184 420.976,-254.983"/>
<text text-anchor="middle" x="505.5" y="-213" font-family="Times,serif" font-size="10.00">wasAssociatedWith</text>
</g>
<!-- b3 -->
<g id="node17" class="node"><title>b3</title>
<ellipse fill="gray" stroke="gray" cx="629.5" cy="-257" rx="1.8" ry="1.8"/>
</g>
<!-- n5&#45;&gt;b3 -->
<g id="edge14" class="edge"><title>n5&#45;&gt;b3</title>
<path fill="none" stroke="#8b0000" d="M548.158,-192.241C564.906,-205.042 588.226,-222.981 608.5,-239 616.45,-245.281 625.935,-253.065 628.704,-255.345"/>
<text text-anchor="middle" x="593" y="-213" font-family="Times,serif" font-size="10.00" fill="red">used</text>
</g>
<!-- b4 -->
<g id="node19" class="node"><title>b4</title>
<ellipse fill="gray" stroke="gray" cx="843.5" cy="-257" rx="1.8" ry="1.8"/>
</g>
<!-- n5&#45;&gt;b4 -->
<g id="edge17" class="edge"><title>n5&#45;&gt;b4</title>
<path fill="none" stroke="#8b0000" d="M582.334,-189.849C585.43,-190.593 588.501,-191.314 591.5,-192 695.334,-215.737 732.59,-188.741 826.5,-239 834.449,-243.254 841.087,-252.432 842.967,-255.196"/>
<text text-anchor="middle" x="794" y="-213" font-family="Times,serif" font-size="10.00" fill="red">used</text>
</g>
<!-- ann5 -->
<g id="node10" class="node"><title>ann5</title>
<polygon fill="none" stroke="gray" points="655,-109 476,-109 476,-73 661,-73 661,-103 655,-109"/>
<polyline fill="none" stroke="gray" points="655,-109 655,-103 "/>
<polyline fill="none" stroke="gray" points="661,-103 655,-103 "/>
<g id="a_node10_8"><a xlink:href="http://www.w3.org/ns/prov#label" xlink:title="&lt;TABLE&gt;">
<text text-anchor="start" x="486.5" y="-88" font-family="Times,serif" font-size="10.00">prov:label</text>
</a>
</g>
<text text-anchor="start" x="531.5" y="-88" font-family="Times,serif" font-size="10.00">Smooth and Clean 3D Model</text>
</g>
<!-- ann5&#45;&gt;n5 -->
<g id="edge5" class="edge"><title>ann5&#45;&gt;n5</title>
<path fill="none" stroke="gray" stroke-dasharray="5,2" d="M559.381,-109.178C552.084,-122.924 541.9,-142.107 534.606,-155.847"/>
</g>
<!-- n6 -->
<g id="node11" class="node"><title>n6</title>
<g id="a_node11"><a xlink:href="http://provenance.elaine.uni-rostock.de/swgm" xlink:title="sw:gm">
<ellipse fill="#fffc87" stroke="#808080" cx="699.5" cy="-330" rx="34.394" ry="18"/>
<text text-anchor="middle" x="699.5" y="-326.3" font-family="Times,serif" font-size="14.00">sw:gm</text>
</a>
</g>
</g>
<!-- ann6 -->
<g id="node12" class="node"><title>ann6</title>
<polygon fill="none" stroke="gray" points="811.5,-275 649.5,-275 649.5,-239 817.5,-239 817.5,-269 811.5,-275"/>
<polyline fill="none" stroke="gray" points="811.5,-275 811.5,-269 "/>
<polyline fill="none" stroke="gray" points="817.5,-269 811.5,-269 "/>
<g id="a_node12_9"><a xlink:href="http://www.w3.org/ns/prov#label" xlink:title="&lt;TABLE&gt;">
<text text-anchor="start" x="659.5" y="-254" font-family="Times,serif" font-size="10.00">prov:label</text>
</a>
</g>
<text text-anchor="start" x="704.5" y="-254" font-family="Times,serif" font-size="10.00">GEOMAGIC Studio v12</text>
</g>
<!-- ann6&#45;&gt;n6 -->
<g id="edge6" class="edge"><title>ann6&#45;&gt;n6</title>
<path fill="none" stroke="gray" stroke-dasharray="5,2" d="M725.27,-275.187C719.845,-286.514 712.781,-301.267 707.421,-312.46"/>
</g>
<!-- b1&#45;&gt;n1 -->
<g id="edge9" class="edge"><title>b1&#45;&gt;n1</title>
<path fill="none" stroke="#8b0000" d="M300.06,-259.056C298.808,-261.952 294.957,-270.134 289.5,-275 269.317,-292.998 242.053,-306.502 219.842,-315.504"/>
<polygon fill="#8b0000" stroke="#8b0000" points="218.398,-312.31 210.353,-319.205 220.941,-318.832 218.398,-312.31"/>
</g>
<!-- ann7 -->
<g id="node14" class="node"><title>ann7</title>
<polygon fill="none" stroke="gray" points="320.5,-192 208.5,-192 208.5,-156 326.5,-156 326.5,-186 320.5,-192"/>
<polyline fill="none" stroke="gray" points="320.5,-192 320.5,-186 "/>
<polyline fill="none" stroke="gray" points="326.5,-186 320.5,-186 "/>
<g id="a_node14_10"><a xlink:href="http://www.w3.org/ns/prov#role" xlink:title="&lt;TABLE&gt;">
<text text-anchor="start" x="218.5" y="-171" font-family="Times,serif" font-size="10.00">prov:role</text>
</a>
</g>
<g id="a_node14_11"><a xlink:href="http://provenance.elaine.uni-rostock.de/morawModel" xlink:title="&lt;TABLE&gt;">
<text text-anchor="start" x="258.5" y="-171" font-family="Times,serif" font-size="10.00">mo:rawModel</text>
</a>
</g>
</g>
<!-- ann7&#45;&gt;b1 -->
<g id="edge10" class="edge"><title>ann7&#45;&gt;b1</title>
<path fill="none" stroke="gray" stroke-dasharray="5,2" d="M274.498,-192.178C283.277,-213.726 297.499,-248.635 300.089,-254.991"/>
</g>
<!-- b2&#45;&gt;n3 -->
<g id="edge12" class="edge"><title>b2&#45;&gt;n3</title>
<path fill="none" stroke="#fed37f" d="M421.022,-258.976C422.486,-261.668 426.827,-269.376 431.5,-275 441.358,-286.863 453.638,-298.79 464.273,-308.405"/>
<polygon fill="#fed37f" stroke="#fed37f" points="462.212,-311.255 472.017,-315.269 466.855,-306.017 462.212,-311.255"/>
</g>
<!-- ann8 -->
<g id="node16" class="node"><title>ann8</title>
<polygon fill="none" stroke="gray" points="444.5,-192 344.5,-192 344.5,-156 450.5,-156 450.5,-186 444.5,-192"/>
<polyline fill="none" stroke="gray" points="444.5,-192 444.5,-186 "/>
<polyline fill="none" stroke="gray" points="450.5,-186 444.5,-186 "/>
<g id="a_node16_12"><a xlink:href="http://www.w3.org/ns/prov#role" xlink:title="&lt;TABLE&gt;">
<text text-anchor="start" x="354.5" y="-171" font-family="Times,serif" font-size="10.00">prov:role</text>
</a>
</g>
<g id="a_node16_13"><a xlink:href="http://provenance.elaine.uni-rostock.de/agmodeler" xlink:title="&lt;TABLE&gt;">
<text text-anchor="start" x="394.5" y="-171" font-family="Times,serif" font-size="10.00">ag:modeler</text>
</a>
</g>
</g>
<!-- ann8&#45;&gt;b2 -->
<g id="edge13" class="edge"><title>ann8&#45;&gt;b2</title>
<path fill="none" stroke="gray" stroke-dasharray="5,2" d="M402.378,-192.178C408.496,-213.726 418.409,-248.635 420.213,-254.991"/>
</g>
<!-- b3&#45;&gt;n6 -->
<g id="edge15" class="edge"><title>b3&#45;&gt;n6</title>
<path fill="none" stroke="#8b0000" d="M630.017,-258.98C631.468,-261.684 635.779,-269.417 640.5,-275 650.36,-286.66 662.636,-298.267 673.433,-307.715"/>
<polygon fill="#8b0000" stroke="#8b0000" points="671.465,-310.637 681.337,-314.484 676.018,-305.321 671.465,-310.637"/>
</g>
<!-- ann9 -->
<g id="node18" class="node"><title>ann9</title>
<polygon fill="none" stroke="gray" points="742.5,-192 600.5,-192 600.5,-156 748.5,-156 748.5,-186 742.5,-192"/>
<polyline fill="none" stroke="gray" points="742.5,-192 742.5,-186 "/>
<polyline fill="none" stroke="gray" points="748.5,-186 742.5,-186 "/>
<g id="a_node18_14"><a xlink:href="http://www.w3.org/ns/prov#role" xlink:title="&lt;TABLE&gt;">
<text text-anchor="start" x="610.5" y="-171" font-family="Times,serif" font-size="10.00">prov:role</text>
</a>
</g>
<g id="a_node18_15"><a xlink:href="http://provenance.elaine.uni-rostock.de/swsoftwareToRefine" xlink:title="&lt;TABLE&gt;">
<text text-anchor="start" x="650.5" y="-171" font-family="Times,serif" font-size="10.00">sw:softwareToRefine</text>
</a>
</g>
</g>
<!-- ann9&#45;&gt;b3 -->
<g id="edge16" class="edge"><title>ann9&#45;&gt;b3</title>
<path fill="none" stroke="gray" stroke-dasharray="5,2" d="M664.957,-192.178C652.986,-213.726 633.592,-248.635 630.061,-254.991"/>
</g>
<!-- b4&#45;&gt;n4 -->
<g id="edge18" class="edge"><title>b4&#45;&gt;n4</title>
<path fill="none" stroke="#8b0000" d="M843.613,-259.004C844.142,-263.694 846.425,-283.959 848.4,-301.486"/>
<polygon fill="#8b0000" stroke="#8b0000" points="844.973,-302.336 849.571,-311.881 851.929,-301.552 844.973,-302.336"/>
</g>
<!-- ann10 -->
<g id="node20" class="node"><title>ann10</title>
<polygon fill="none" stroke="gray" points="926,-192 767,-192 767,-156 932,-156 932,-186 926,-192"/>
<polyline fill="none" stroke="gray" points="926,-192 926,-186 "/>
<polyline fill="none" stroke="gray" points="932,-186 926,-186 "/>
<g id="a_node20_16"><a xlink:href="http://www.w3.org/ns/prov#role" xlink:title="&lt;TABLE&gt;">
<text text-anchor="start" x="777.5" y="-171" font-family="Times,serif" font-size="10.00">prov:role</text>
</a>
</g>
<g id="a_node20_17"><a xlink:href="http://provenance.elaine.uni-rostock.de/asrefinementAssumption" xlink:title="&lt;TABLE&gt;">
<text text-anchor="start" x="817.5" y="-171" font-family="Times,serif" font-size="10.00">as:refinementAssumption</text>
</a>
</g>
</g>
<!-- ann10&#45;&gt;b4 -->
<g id="edge19" class="edge"><title>ann10&#45;&gt;b4</title>
<path fill="none" stroke="gray" stroke-dasharray="5,2" d="M848.228,-192.178C846.631,-213.726 844.046,-248.635 843.575,-254.991"/>
</g>
</g>
</svg>
